<mxfile host="app.diagrams.net" modified="2023-10-07T09:41:26.828Z" agent="Mozilla/5.0 (Windows NT 10.0; Win64; x64; rv:109.0) Gecko/20100101 Firefox/118.0" etag="c_zapt5t3SKo1lWiB6-3" version="22.0.4" type="device">
  <diagram name="Page-1" id="5RJHcLyHWp3DeFKyhIyc">
    <mxGraphModel dx="1167" dy="629" grid="1" gridSize="10" guides="1" tooltips="1" connect="1" arrows="1" fold="1" page="1" pageScale="1" pageWidth="827" pageHeight="1169" math="0" shadow="0">
      <root>
        <mxCell id="0" />
        <mxCell id="1" parent="0" />
        <mxCell id="S314ZZc2xVepcIE-NDJ0-16" value="optional" style="swimlane;startSize=0;fillColor=#dae8fc;strokeColor=#6c8ebf;" parent="1" vertex="1">
          <mxGeometry x="150" y="160" width="170" height="180" as="geometry">
            <mxRectangle x="150" y="160" width="90" height="30" as="alternateBounds" />
          </mxGeometry>
        </mxCell>
        <mxCell id="S314ZZc2xVepcIE-NDJ0-17" value="s" style="swimlane;startSize=0;fillColor=#e1d5e7;strokeColor=#9673a6;" parent="1" vertex="1">
          <mxGeometry x="140" y="150" width="690" height="500" as="geometry" />
        </mxCell>
        <mxCell id="S314ZZc2xVepcIE-NDJ0-35" style="edgeStyle=orthogonalEdgeStyle;rounded=0;orthogonalLoop=1;jettySize=auto;html=1;" parent="S314ZZc2xVepcIE-NDJ0-17" source="S314ZZc2xVepcIE-NDJ0-18" target="S314ZZc2xVepcIE-NDJ0-2" edge="1">
          <mxGeometry relative="1" as="geometry">
            <Array as="points">
              <mxPoint x="318.56" y="264" />
            </Array>
          </mxGeometry>
        </mxCell>
        <mxCell id="S314ZZc2xVepcIE-NDJ0-36" style="edgeStyle=orthogonalEdgeStyle;rounded=0;orthogonalLoop=1;jettySize=auto;html=1;" parent="S314ZZc2xVepcIE-NDJ0-17" source="S314ZZc2xVepcIE-NDJ0-18" target="S314ZZc2xVepcIE-NDJ0-19" edge="1">
          <mxGeometry relative="1" as="geometry">
            <Array as="points">
              <mxPoint x="338.56" y="264" />
            </Array>
          </mxGeometry>
        </mxCell>
        <mxCell id="h9y931ZIdj-U9sBVEpIx-13" value="Registers" style="edgeStyle=orthogonalEdgeStyle;rounded=0;orthogonalLoop=1;jettySize=auto;html=1;entryX=0.5;entryY=0;entryDx=0;entryDy=0;" edge="1" parent="S314ZZc2xVepcIE-NDJ0-17" source="S314ZZc2xVepcIE-NDJ0-18" target="h9y931ZIdj-U9sBVEpIx-1">
          <mxGeometry relative="1" as="geometry">
            <Array as="points">
              <mxPoint x="210" y="170" />
              <mxPoint x="210" y="238" />
            </Array>
          </mxGeometry>
        </mxCell>
        <mxCell id="S314ZZc2xVepcIE-NDJ0-18" value="Backend&lt;br&gt;" style="image;aspect=fixed;html=1;points=[];align=center;fontSize=12;image=img/lib/azure2/containers/App_Services.svg;" parent="S314ZZc2xVepcIE-NDJ0-17" vertex="1">
          <mxGeometry x="301.06" y="120" width="62" height="62" as="geometry" />
        </mxCell>
        <mxCell id="S314ZZc2xVepcIE-NDJ0-2" value="DB" style="image;aspect=fixed;html=1;points=[];align=center;fontSize=12;image=img/lib/azure2/databases/Azure_Database_PostgreSQL_Server.svg;" parent="S314ZZc2xVepcIE-NDJ0-17" vertex="1">
          <mxGeometry x="248.06" y="232" width="48" height="64" as="geometry" />
        </mxCell>
        <mxCell id="S314ZZc2xVepcIE-NDJ0-19" value="Blob storage" style="image;aspect=fixed;html=1;points=[];align=center;fontSize=12;image=img/lib/azure2/storage/Storage_Accounts.svg;" parent="S314ZZc2xVepcIE-NDJ0-17" vertex="1">
          <mxGeometry x="368.56" y="238" width="65" height="52" as="geometry" />
        </mxCell>
        <mxCell id="h9y931ZIdj-U9sBVEpIx-16" style="edgeStyle=orthogonalEdgeStyle;rounded=0;orthogonalLoop=1;jettySize=auto;html=1;" edge="1" parent="S314ZZc2xVepcIE-NDJ0-17" source="S314ZZc2xVepcIE-NDJ0-13" target="S314ZZc2xVepcIE-NDJ0-18">
          <mxGeometry relative="1" as="geometry">
            <Array as="points">
              <mxPoint x="102" y="100" />
              <mxPoint x="220" y="100" />
              <mxPoint x="220" y="151" />
            </Array>
          </mxGeometry>
        </mxCell>
        <mxCell id="S314ZZc2xVepcIE-NDJ0-13" value="Reverse proxy (private)" style="shape=image;verticalLabelPosition=bottom;labelBackgroundColor=default;verticalAlign=top;aspect=fixed;imageAspect=0;image=https://w7.pngwing.com/pngs/262/242/png-transparent-nginx-phusion-passenger-application-software-proxy-server-reverse-proxy-creativo-logo-de-marca-angle-text-trademark.png;" parent="S314ZZc2xVepcIE-NDJ0-17" vertex="1">
          <mxGeometry x="80" y="20" width="43.56" height="50" as="geometry" />
        </mxCell>
        <mxCell id="h9y931ZIdj-U9sBVEpIx-5" value="&lt;div&gt;Triggers&lt;/div&gt;" style="edgeStyle=orthogonalEdgeStyle;rounded=0;orthogonalLoop=1;jettySize=auto;html=1;" edge="1" parent="S314ZZc2xVepcIE-NDJ0-17" source="h9y931ZIdj-U9sBVEpIx-1" target="h9y931ZIdj-U9sBVEpIx-3">
          <mxGeometry relative="1" as="geometry" />
        </mxCell>
        <mxCell id="h9y931ZIdj-U9sBVEpIx-1" value="Message Broker" style="shape=image;verticalLabelPosition=bottom;labelBackgroundColor=default;verticalAlign=top;aspect=fixed;imageAspect=0;image=data:image/png,iVBORw0KGgoAAAANSUhEUgAACWAAAAnsCAYAAABlP9jNAAAABHNCSVQICAgIfAhkiAAAAAlwSFlzAAAPAAAADwABF3EhcAAAABl0RVh0U29mdHdhcmUAd3d3Lmlua3NjYXBlLm9yZ5vuPBoAACAASURBVHic7N15sKV1fefxz+/0QmODsgrSoi0RiYpYjhgBt6i4MBQTBtOugwO93G5akXGrmGjV3KlUoqXWuKAIzTI6LrGK0ZmUKSnXGPeJlZlRMzVOrCjjBNAEcKIi273nN3/QkBZp6Pv0fe7vnOe8Xn9IU5b3vst/bj2nP/f7lNBcPT9H5oA8KovZmFEenprDU3Jkag5PckSSw5McmGTd7n8myUFJ1jRKBmbXrUlu2/3nnydZ2P3Pf0hyY5KbUnLT7j9fm5prs5Bry1X5eZNaAIAZVnfm6NyRjSnZmJINSY5IzZEpOTwlh+9+5rz7OXPd7v/ZwUlWt2oGZtYdSW7Z/edb7vn3uvsZs+Yfdj9r3pSaH6Xkh1nMteXK3NysGAAAAGAPpXXArKibsiqH5vjUnJSSk5I8PsnxSTYmWd80DqB/dw+yvp+S76TkO1mV75ZL8n9bhwEATLM6n9W5LidklJN2P2+emJrfyF3Pmgc+wP8cYNr9LMm1Sb6f5Lsp+W5qvp1j8sMyn3HbNAAAAGCWGGD1pG7JIzPK01NyakpOSc3j4sNvgHv7aZLvJPlGSr6e1fl6eX9uah0FADCp6pY8OqtzWpKnp+bk3PXLPWsbZwFMml+k5K+T/NfUfC0L+Vq5Kte3jgIAAACGywBrmdQLclwW8sKM8qzUPC3JhtZNAFOoJvlear6eki8m+WzZlRtbRwEAtFIvyAl7PGueluSo1k0AU+qHSb6W5C8yyjXl0lzXOggAAAAYDgOsjup5WZc1eXqS0zPK6al5cusmgAEap+S/Z5zPJ/l8NuRLZT4LraMAAPpS5/Kg3UOr01PyL5I8tnUTwED9IMmfpeZTWZevlItze+sgAAAAYHoZYC1BPS/rckCel5pNSc5OcnDrJoAZc1OST6fk6jws1xhjAQBDUF+bA/PLnL77WfOcJOtbNwHMmP+X5FMpuTo35zPl6tzROggAAACYLgZYD6DOZU1qzkjJS5KcFaMrgElxXUr+Uxbz8XJFvtk6BgBgKeqFOSB35KyM85KUnJnkwNZNACRJbk7Nf07y8WzIF8t8xq2DAAAAgMlngLUXdWeOzWJenppXJTm2dQ8A9+t7Kflgaq4su3Jj6xgAgL2pF+SELOT8lGxOcmTrHgDu13Wp+UjG+UC5Mv+ndQwAAAAwuQyw9lDnsiYl56RmW5LnxP8/ANPmtpR8Ismuclm+3DoGACDZfe3q9rw0NdtS8rTWPQAs2WKST6dmVzbk065iAQAAAPdmYJSkbs7BWZXNKXldkke07gFgWfyPlLwrNX9SduXO1jEAwOypc3lIas5LyRuTbGjdA8Cy+NvUXJySy8uu/LJ1DAAAADAZZnqAVefysCTbk1yU5JDGOQD044Yku7Iq7ykfyE9bxwAAw1cvyHFZzEVJtiZ5UOseAHpxY2quzGLeW67K9a1jAAAAgLZmcoBVd+bYLOQNuWt8dUDrHgBWxM9Tc0lK3lp25R9bxwAAw1N3ZGPG+f0kW5Ksat0DwIq4PcmHsjr/tlySH7eOAQAAANqYqQFWPT9HZnVen5KLkqxr3QNAEzel5B2pudjrIgCA5VDn8ogkb06yOcnqxjkAtHFLat6Xcd5erszNrWMAAACAlTUTA6w6l4ek5C2peVWSA1v3ADARbkjyhzkml5f5LLSOAQCmTz0/R2Zt5lOzNcna1j0ATIR/TPKOrM+/L+/Kra1jAAAAgJUx6AFWnc8oN+RfpebtSY5q3QPARPpeal5XLs81rUMAgOlQ57ImJeen5o+SHNG6B4CJ9HcpeXMuy4dLUlvHAAAAAP0a7ACr7shvZ5x3J3li6xYApsLnM85ryhX5X61DAIDJVbfl9JS8O8njW7cAMAVq/jI1F5Ur8s3WKQAAAEB/BjfAqjvy0Czm3Sl5WesWAKbO7Unelp/mj8vVuaN1DAAwOerWPDyjXJLkrNYtAEydcZIPZCG/X67Kz1vHAAAAAMtvUAOsOpdNSS6JV0AAsH++n1HmyqX5UusQAKCtmpRsz7bUvCPJg1v3ADDVbkjJq8tl+WTrEAAAAGB5DWKAVXdkY2ouTc0LWrcAMBg1yeVZyBv8hjIAzKa6JY/OquxK8uzWLQAMSMmf5c5sL1fl+tYpAAAAwPKY+gFW3ZbNKXlPkoNatwAwSNcmObfsyldbhwAAK6MmJdvympS8Lcm61j0ADNKNKdlaLsuftg4BAAAA9t/UDrDqXB6Smg+k5GWtWwAYvHGS9+WneWO5One0jgEA+lN35KEZ56okZ7ZuAWAmfDi35oLy4dzSOgQAAADobioHWHVrnpNRPpTk4a1bAJgp30rJK8pl+X7rEABg+dVteUFKPpjk6NYtAMyU7yV5RdmV/9Y6BAAAAOhmqgZYdT6jXJ/5JG9OMmqcA8Bs+nmSLWVXrm4dAgAsjzqXNSl5R2ouat0CwMy6I8nry668r3UIAAAAsHRTM8CqF+bBuS3/MSW/07oFAJLsSvLqsit3tg4BALqr5+fIrM3HU/Oc1i0AkORjSbaVXfll6xAAAABg303FAKtuzxNT88kkx7VuAYA9fDnjvLhckZ+0DgEAlq5uz8mp+USSR7RuAYA9fDurck75QH7QOgQAAADYNxP/Gr+6LS9NzddjfAXA5HlmRvlW3ZEntQ4BAJambs9car4W4ysAJs8Ts5hv1W05vXUIAAAAsG8meoBVt+WilHw0yYNatwDAXhybcb5St+es1iEAwAOrSalzmU/NZUnWtu4BgL04LCXX1O3Z0ToEAAAAeGAT+QrCOp/VuS4Xp/iAAYCpsZjkorIr728dAgDct3phDsht+Q8peVnrFgBYgvfmmLy2zGfcOgQAAAC4bxM3wKoX5sG5PVcneX7rFgBYspJ35mH5PR+MA8BkqXM5IsmfJjmtdQsALFnJR7M2W8rFub11CgAAAPDrJmqAVS/IoVnMNUme2roFADqr+ZNsyCvLfBZapwAASd2Zo7OQzyU5sXULAHRW86WsyVnlkvyidQoAAADwqyZmgFW35qiM8tkkJ7VuAYBl8KnckReXD+a21iEAMMvqljwyq/L5JI9u3QIAy+CrOSBnlovzs9YhAAAAwD+ZiAFW3Zljs5AvJDm+dQsALKNrsj4vKu/Kra1DAGAW1QtyQhbzuSTHtm4BgGVT8lepeWHZlRtbpwAAAAB3aT7AqhfkuCzmC0k2tm4BgB78eW7NWeXDuaV1CADMkrojJ2aczyc5qnULAPTguxnl9HJp/r51CAAAANB4gFV3ZEPG+UqSR7XsAIBelXwxt+dMryMEgJVRt+TRWZUvJ3lY6xYA6NF3sphnlytzc+sQAAAAmHWjVt+4np8jM87nYnwFwNDVPCcH5L/UC3NA6xQAGLq6M8dmVT4X4ysAhu+krMqn6+Yc3DoEAAAAZl2TAVY9L4dkTT6T5LEtvj8ArLiaF+T2fKzOZ3XrFAAYqro1R2Uhn4tX3AMwO56aVbmmnpv1rUMAAABglq34AKvuzEFZm88medJKf28AaOycXJdLa+NXAAPAENVX5fCM8udJTmjdAgArquRpOTBX+4UfAAAAaGdFB1h1U1blznwkyVNW8vsCwMQo2ZK5vKV1BgAMSd2UtbkzV8eVZQBm1xm5Lpe2jgAAAIBZtbIXsA7Nu1PyOyv6PQFg8vy7uj2vbB0BAENQk5JDc2WSZ7duAYCmSrbUubypdQYAAADMohV7BVKdy+uTvHOlvh8ATLg7U3JGuSxfaB0CANOszuWPkvxB6w4AmBA1Ja8sl+UjrUMAAABglqzIAKvO5ewkn8hKX9wCgMl2c2pOLZfnb1qHAMA0qttzfmquat0BABPmttQ8t1yer7cOAQAAgFnR+wCrXpATspi/TPLgvr8XAEyh/50D8lvl4vysdQgATJO6I0/KOF9LcmDrFgCYQD/JKE8ul+a61iEAAAAwC3q9SFV35qAs5pMxvgKAvTkht+dDdQVfCwwA066+KodnnE/G+AoA9uaojHN13ZS1rUMAAABgFvQ2wKpJyUKuSvK4vr4HAAzE2ZnL61pHAMA0qJuyKnfmY0k2tm4BgAl3ag7NO1pHAAAAwCzo7wLWXN6YZFNvXx8AhuVtdVue1ToCACbeofnjJM9vnQEAU+I1dS4vbx0BAAAAQ9fL647q1jw5o3wjyZo+vj4ADNT1WZOTyvtzU+sQAJhEdXuel5rPxKt7AWApbknNPyuX529ahwAAAMBQLfsFrHpu1meUj8X4CgCW6pjcmStaRwDAJKpzOSI1H4rxFQAs1fqUfLTO+bwWAAAA+rL8ryA8MO9N8phl/7oAMBvOrtuzpXUEAEygS5I8rHUEAEypk1PyltYRAAAAMFTL+pvDdVv+ZUo+uZxfEwBmkNdDAMAe6vbMpeay1h0AMOXGqXlOuTx/0ToEAAAAhmbZBlh1Rx6acf5nkiOW62sCwAz7Ro7J08t8xq1DAKCluiMbM85fJ1nfugUABuAHSZ5QduWXrUMAAABgSJbvFYSLeXeMrwBguZyaG/Kq1hEA0FzNpTG+AoDlclyS+dYRAAAAMDTLcgGrbssZKfn0cnwtAOAet2ScJ5Qr8sPWIQDQQt2eV6bmQ607AGBgFjPOU8sV+avWIQAAADAU+30Bq56b9Sl5/3LEAAC/Yn1GfsYCMJvqXI5IzTtbdwDAAK3KKFfVuaxpHQIAAABDsf+vIFyXtyZ51P6nAAD34Yy6LS9tHQEADbwnyZGtIwBgoE5K8trWEQAAADAU+/UKwro9j0vNt5OsXqYeAODXXZdbc0L5cG5pHQIAK6Fuy2kp+Wr285kVALhfv8hCTihX5frWIQAAADDt9u8CVs27YnwFAH3bkAPze60jAGAl1PmMUvKeGF8BQN8Oyqq8tXUEAAAADEHnAVady9lJnr+MLQDA3r2h7sjG1hEA0Lsbcn6Sk1tnAMBMKDm3zuWprTMAAABg2nUaYNVNWZvk7cvcAgDs3YEZ+81kAIatbs7BqfnD1h0AMENKSt5dXZ4EAACA/dLtAtZheXWS45c3BQB4AC+p23Nq6wgA6M3qvCnJw1pnAMBMqTkl2/KS1hkAAAAwzZb8m0313KzPgflBkof20AMA3L/Pl115XusIAFhudS5HJPlBkoNbtwDADPp+jsnjynwWWocAAADANFr6Bax1eU2MrwCgldPrjvx26wgA6MGbYnwFAK0cnxvy8tYRAAAAMK2WdAGrXpgH5/b8MMlhPfUAAA+k5mvl8jy9dQYALJe6M0dnIX+b5EGtWwBghl2bn+aEcnXuaB0CAAAA02ZpF7Buz+tifAUAbZU8rW7Pc1tnAMCyuTN/EOMrAGhtYw7Jv24dAQAAANNony9g1c05OKvzoySH9NgDAOyLkq+Uy/LM1hkAsL/q1hyVUa5Nsq51CwCQH+aYPKbMZ6F1CAAAAEyTfb+AtTpbY3wFAJOh5hl1a05pnQEA+22UC2N8BQCT4lG5IS9qHQEAAADTZp8GWHVTViV5dc8tAMBSrMprWycAwP6oc3lQku2tOwCAPdS8oXUCAAAATJt9u4B1WH43yXH9pgAAS1LzojqX32idAQCd1ZyX5IjWGQDArzi5bsuzWkcAAADANNm3AVZ1YQMAJtCqlFzYOgIAuqjzGaXk37TuAADuQ8nrWycAAADANHnAAVady1OTPHUFWgCAparZXHfmoNYZALBkN+SFSY5vnQEA3Kcz6wXeiAAAAAD7al8uYM31XgEAdHVwFvOS1hEAsGRjz5oAMMFGWczm1hEAAAAwLcr9/Zd1Zw7KQq5PcvAK9QAAS1XyzXJZTm2dAQD7qu7M0VnIj5Ksad0CAOzVj5M8ouzKna1DAAAAYNLd/wWshbwixlcAMNlqTqnb88TWGQCwzxayOcZXADDpjk7NGa0jAAAAYBrc/wCrZNsKdQAA+6PmvNYJALAv6l2XmM9v3QEA7IORz4cBAABgX+z1FYR1R07MON9dyRgAoLMbkxzj1RAATLq6Lc9KyZdadwAA+2Qx42woV+QnrUMAAABgku39AtZiXrKCHQDA/jkiJc9tHQEAD6h41gSAKbIqJS9qHQEAAACTbu8DrJLfXcEOAGB/1WxqnQAA96duyqok57TuAACWoOTFrRMAAABg0t3nAKvuyJOS/OYKtwAA++ecuilrW0cAwF4dkmcnOap1BgCwJM+oO7KhdQQAAABMsvu+gDX2W00AMIUOyWE5vXUEAOzVyLMmAEyhUcZeQwgAAAD3Z2+vIPRKCACYRtWH4gBMpjqfUWrObt0BAHTiWRMAAADux68NsOrWPCrJYxq0AAD775/XpLSOAIBf8+OcnOTI1hkAQCen1fNySOsIAAAAmFS/fgFrlDMbdAAAy+PobM9JrSMA4NeMc0brBACgs9VZk+e2jgAAAIBJdV+vIHzhilcAAMvJz3IAJk/x8wkAppqf5QAAALBXvzLAqhfmgCTPatQCACyHsQ/FAZgsdUsOS81TWncAAPvlhV55DwAAAPftVy9g3ZZnJDmoTQoAsCxKnlY35+DWGQBwj9V5XpJVrTMAgP3y8OzI41tHAAAAwCS69ysIXb8CgOm3JqtzausIALhH9awJAIOwmGe2TgAAAIBJNLrXv53WqAMAWE4lT2udAAB78KwJAEPgWRMAAADu0z0DrDqf1an5rZYxAMAyqT4UB2Ay1Avz4CQntu4AAJaFZ00AAAC4D/90Aevv8sQkB7VLAQCW0Sl1PqtbRwBAbs8pSVa1zgAAlsUj684c2zoCAAAAJs1ojz/57SUAGI71+XGe0DoCALyqCAAGZtGrhQEAAODeRnv8+eRmFQDA8ht7tTAAE2DsWRMABqXmKa0TAAAAYNLsOcA6qVkFANAHF7AAaK941gSAgfGsCQAAAPcySpI6lzVJHtu4BQBYXj4UB6CpuiWHJXl46w4AYFkZVwMAAMC93H0B6zeTrG0ZAgAsOwMsANpa4y9oAWCAjq478tDWEQAAADBJ7hpgVR+KA8AAHVp3ZEPrCABm2NizJgAM0kJObJ0AAAAAk2S0+z8f37gDAOhDdQULgKY8awLAEI0MsAAAAGBPd1/AOq5xBwDQh7Gf8QA05ecQAAxR8TMeAAAA9nT3AOtRjTsAgD6UbGydAMBM86wJAEPk82QAAAD4FXcNsPzlLAAM1cbWAQDMpjqfUZJjW3cAAL3Y2DoAAAAAJsmonpv1SY5sHQIA9GJj6wAAZtTfZ0OSta0zAIBeuIAFAAAAexhlXTYmKa1DAIBebGwdAMCMWvQXswAwYAfXV+Xw1hEAAAAwKUYZ5ZjWEQBAb46s52Vd6wgAZtDYsyYADNpCHt46AQAAACbFKMkRrSMAgB6t81vJADRQPGsCwKAtetYEAACAuxlgAcDQLfhQHIAmPGsCwJAZWwMAAMA9Rqn+UhYABm3kZz0ATfj5AwBDVvysBwAAgLuN4kNxABg2H4oD0IJf9gGAoXMBCwAAAHYbJTmsdQQA0CN/AQ5ACyPPmgAwcH7WAwAAwG6jJA9qHQEA9KhkfesEAGaSZ00AGDY/6wEAAGC3UZIDWkcAAD2qWds6AYAZNPasCQCDVjxrAgAAwN1GiQdlABg0AywAWvCXsgAwbMbWAAAAcI+RD8UBYPDWtA4AYCZ51gSAISsGWAAAAHC3kasYADBwxtYAtOHnDwAMmWdNAAAAuMcormIAwLD5rWQA2vCsCQBD5hd7AQAA4B6jJKV1BAAAAIPjWRMAhqz6WQ8AAAB3G7UOAAAAAAAAAAAAmFYGWAAwdDW1dQIAAAAAAADAUBlgAQAAAAAAAAAAdGSABQDD5wIWAAAAAAAAQE8MsAAAAAAAAAAAADoywAKAoasuYAEAAAAAAAD0xQALAAAAAAAAAACgIwMsABi64gIWAAAAAAAAQF8MsAAAAAAAAAAAADoywAKAoXMBCwAAAAAAAKA3BlgAAAAAAAAAAAAdGWABwNBVF7AAAAAAAAAA+mKABQAAAAAAAAAA0JEBFgAMnwtYAAAAAAAAAD0xwAIAAAAAAAAAAOjIAAsAhq66gAUAAAAAAADQFwMsAAAAAAAAAACAjgywAGDoigtYAAAAAAAAAH0xwAIAAAAAAAAAAOjIAAsAhs4FLAAAAAAAAIDeGGABAAAAAAAAAAB0ZIAFAENXXcACAAAAAAAA6IsBFgAAAAAAAAAAQEcGWAAwfC5gAQAAAAAAAPTEAAsAAAAAAAAAAKAjAywAGLrqAhYAAAAAAABAXwywAAAAAAAAAAAAOjLAAoChKy5gAQAAAAAAAPTFAAsAAAAAAAAAAKAjAywAGDoXsAAAAAAAAAB6Y4AFAAAAAAAAAADQkQEWAAxddQELAAAAAAAAoC8GWAAAAAAAAAAAAB0ZYAEAAAAAAAAAAHRkgAUAw+cVhAAAAAAAAAA9McACAAAAAAAAAADoyAALAIauuoAFAAAAAAAA0BcDLAAAAAAAAAAAgI4MsABg6IoLWAAAAAAAAAB9McACAAAAAAAAAADoyAALAIbOBSwAAAAAAACA3hhgAQAAAAAAAAAAdGSABQBDV13AAgAAAAAAAOiLARYAAAAAAAAAAEBHBlgAMHwuYAEAAAAAAAD0xAALAAAAAAAAAACgIwMsABi66gIWAAAAAAAAQF8MsAAAAAAAAAAAADoywAKAoSsuYAEAAAAAAAD0xQALAAAAAAAAAACgIwMsABg6F7AAAAAAAAAAemOABQAAAAAAAAAA0JEBFgAMXXUBCwAAAAAAAKAvBlgAAAAAAAAAAAAdGWABwPC5gAUAAAAAAADQEwMsAAAAAAAAAACAjgywAGDoqgtYAAAAAAAAAH0xwAIAAAAAAAAAAOjIAAsAhq64gAUAAAAAAADQFwMsAAAAAAAAAACAjgywAGDoXMACAAAAAAAA6I0BFgAAAAAAAAAAQEcGWAAwdNUFLAAAAAAAAIC+GGABAAAAAAAAAAB0ZIAFAMPnAhYAAAAAAABATwywAAAAAAAAAAAAOjLAAoChqy5gAQAAAAAAAPTFAAsAAAAAAAAAAKAjAywAGLriAhYAAAAAAABAXwywAAAAAAAAAAAAOjLAAoChcwELAAAAAAAAoDcGWAAAAAAAAAAAAB0ZYAHA0FUXsAAAAAAAAAD6YoAFAAAAAAAAAADQkQEWAAyfC1gAAAAAAAAAPTHAAgAAAAAAAAAA6MgACwCGrrqABQAAAAAAANAXAywAAAAAAAAAAICODLAAYOiKC1gAAAAAAAAAfTHAAgAAAAAAAAAA6MgACwCGzgUsAAAAAAAAgN4YYAEAAAAAAAAAAHRkgAUAQ1ddwAIAAAAAAADoiwEWAAAAAAAAAABARwZYADB0xQUsAAAAAAAAgL4YYAEAAAAAAAAAAHRkgAUAQzd2AQsAAAAAAACgLwZYAAAAAAAAAAAAHRlgAcDQFRewAAAAAAAAAPpigAUAAAAAAAAAANCRARYADJ0LWAAAAAAAAAC9McACAAAAAAAAAADoyAALAIZu7AIWAAAAAAAAQF8MsAAAAAAAAAAAADoywAKAoRu5gAUAAAAAAADQFwMsAAAAAAAAAACAjgywAGDoxi5gAQAAAAAAAPTFAAsAAAAAAAAAAKAjAywAGLriAhYAAAAAAABAXwywAAAAAAAAAAAAOjLAAoChcwELAAAAAAAAoDcGWAAAAAAAAAAAAB0ZYAHA0I1dwAIAAAAAAADoiwEWAAAAAAAAAABARwZYADB0IxewAAAAAAAAAPpigAUAAAAAAAAAANCRARYADN3YBSwAAAAAAACAvhhgAQAAAAAAAAAAdGSABQBDV1zAAgAAAAAAAOiLARYAAAAAAAAAAEBHBlgAMHQuYAEAAAAAAAD0xgALAAAAAAAAAACgIwMsABi6sQtYAAAAAAAAAH0xwAIAAAAAAAAAAOjIAAsAhm7kAhYAAAAAAABAXwywAAAAAAAAAAAAOjLAAoChG7uABQAAAAAAANAXAywAAAAAAAAAAICODLAAYOiKC1gAAAAAAAAAfTHAAgAAAAAAAAAA6MgACwCGzgUsAAAAAAAAgN4YYAEAAAAAAAAAAHRkgAUAQzd2AQsAAAAAAACgLwZYAAAAAAAAAAAAHRlgAcDQjVzAAgAAAAAAAOiLARYAAAAAAAAAAEBHBlgAMHRjF7AAAAAAAAAA+mKABQAAAAAAAAAA0JEBFgAMXXEBCwAAAAAAAKAvBlgAAAAAAAAAAAAdGWABwNC5gAUAAAAAAADQGwMsAAAAAAAAAACAjgywAGDoxi5gAQAAAAAAAPTFAAsAAAAAAAAAAKAjAywAGLqRC1gAAAAAAAAAfTHAAgAAAAAAAAAA6MgACwCGbuwCFgAAAAAAAEBfDLAAAAAAAAAAAAA6MsACgKErLmABAAAAAAAA9MUACwAAAAAAAAAAoCMDLAAYOhewAAAAAAAAAHpjgAUAAAAAAAAAANCRARYADN3YBSwAAAAAAACAvhhgAQAAAAAAAAAAdGSABQBDN3IBCwAAAAAAAKAvBlgAAAAAAAAAAAAdGWABwNCNXcACAAAAAAAA6IsBFgAAAAAAAAAAQEcGWAAwdMUFLAAAAAAAAIC+GGABAAAAAAAAAAB0ZIAFAEPnAhYAAAAAAABAbwywAAAAAAAAAAAAOjLAAoChG7uABQAAAAAAANAXAywAAAAAAAAAAICODLAAYOhGLmABAAAAAAAA9MUACwAAAAAAAAAAoCMDLAAYukUXsAAAAAAAAAD6YoAFAAAAAAAAAADQkQEWAAzdyAUsAAAAAAAAgL4YYAEAAAAAAAAAAHRkgAUAQ+cCFgAAAAAAAEBvDLAAAAAAAAAAAAA6MsACgKFbdAELAAAAAAAAoC8GWAAAAAAAAAAAAB0ZYAHA0I1cwAIAAAAAAADoiwEWAAAAAAAAAABARwZYADB0iy5gAQAAAAAAAPTFAAsAAAAAAAAAAKAjAywAGLqRC1gAAAAAAAAAfTHAAgAAAAAAAAAA6MgACwCGzgUsAAAAAAAAgN4YYAEAAAAAAAAAyRMniQAAIABJREFUAHRkgAUAQ7foAhYAAAAAAABAXwywAAAAAAAAAAAAOjLAAoChG7mABQAAAAAAANAXAywAAAAAAAAAAICODLAAYOgWXcACAAAAAAAA6IsBFgAAAAAAAAAAQEcGWAAwdCMXsAAAAAAAAAD6YoAFAAAAAAAAAADQkQEWAAydC1gAAAAAAAAAvTHAAgAAAAAAAAAA6MgACwCGbtEFLAAAAAAAAIC+GGABAAAAAAAAAAB0ZIAFAEM3cgELAAAAAAAAoC8GWAAAAAAAAAAAAB0ZYAHA0C26gAUAAAAAAADQFwMsABg6ryAEAAAAAAAA6I0BFgAAAAAAAAAAQEcGWAAwdC5gAQAAAAAAAPTGAAsAAAAAAAAAAKAjAywAGLpFF7AAAAAAAAAA+mKABQAAAAAAAAAA0JEBFgAM3cgFLAAAAAAAAIC+GGABAAAAAAAAAAB0ZIAFAEO36AIWAAAAAAAAQF8MsAAAAAAAAAAAADoywAKAoRu5gAUAAAAAAADQFwMsAAAAAAAAAACAjgywAGDoXMACAAAAAAAA6I0BFgAAAAAAAAAAQEcGWAAwdIsuYAEAAAAAAAD0xQALAAAAAAAAAACgIwMsABi6kQtYAAAAAAAAAH0xwAIAAAAAAAAAAOjIAAsAhm7RBSwAAAAAAACAvhhgAQAAAAAAAAAAdGSABQBDN3IBCwAAAAAAAKAvBlgAAAAAAAAAAAAdGWABwNCtcgELAAAAAAAAoC8GWAAAAAAAAAAAAB0ZYAHA0C24gAUAAAAAAADQFwMsAAAAAAAAAACAjgywAGDoRi5gAQAAAAAAAPTFAAsAAAAAAAAAAKAjAywAGLoFF7Dg/7N3B7d2VQEMRTk/jxAUZcCUFmiSJumBWQYIkfxI99CDJU+sterYsgEAAAAAAKBFgAUAAAAAAAAAABASYAHAug8WsAAAAAAAAABaBFgAAAAAAAAAAAAhARYArLOABQAAAAAAAFAjwAIAAAAAAAAAAAgJsABg3Q8LWAAAAAAAAAAtAiwAAAAAAAAAAICQAAsA1r0sYAEAAAAAAAC0CLAAAAAAAAAAAABCAiwAWPfDAhYAAAAAAABAiwALAAAAAAAAAAAgJMACgHUfLGABAAAAAAAAtAiwAAAAAAAAAAAAQgIsAFj3soAFAAAAAAAA0CLAAgAAAAAAAAAACAmwAGDduwUsAAAAAAAAgBYBFgAAAAAAAAAAQEiABQDrXhawAAAAAAAAAFoEWAAAAAAAAAAAACEBFgCse7eABQAAAAAAANAiwAIAAAAAAAAAAAgJsABg3csCFgAAAAAAAECLAAsAAAAAAAAAACAkwAKAdRawAAAAAAAAAGoEWAAAAAAAAAAAACEBFgCse7eABQAAAAAAANAiwAIAAAAAAAAAAAgJsABg3csCFgAAAAAAAECLAAsAAAAAAAAAACAkwAKAdd8tYAEAAAAAAAC0CLAAAAAAAAAAAABCAiwAWPezBSwAAAAAAACAFgEWAAAAAAAAAABASIAFAOssYAEAAAAAAADUCLAAAAAAAAAAAABCAiwAWPfNAhYAAAAAAABAiwALAAAAAAAAAAAgJMACgHUfLWABAAAAAAAAtAiwAAAAAAAAAAAAQgIsAFj3nwUsAAAAAAAAgBYBFgAAAAAAAAAAQEiABQDrPlrAAgAAAAAAAGgRYAEAAAAAAAAAAIQEWACw7hcLWAAAAAAAAAAtAiwAAAAAAAAAAICQAAsA1v1rAQsAAAAAAACgRYAFAAAAAAAAAAAQEmABwLpPFrAAAAAAAAAAWgRYAAAAAAAAAAAAIQEWAKz7xwIWAAAAAAAAQIsACwAAAAAAAAAAICTAAoB1v1rAAgAAAAAAAGgRYAEAAAAAAAAAAIQEWACw7rMFLAAAAAAAAIAWARYAAAAAAAAAAEBIgAUA675awAIAAAAAAABoEWABAAAAAAAAAACEBFgAsO6LBSwAAAAAAACAFgEWAAAAAAAAAABASIAFAOv+toAFAAAAAAAA0CLAAgAAAAAAAAAACAmwAGDdbxawAAAAAAAAAFoEWAAAAAAAAAAAACEBFgCs+90CFgAAAAAAAECLAAsAAAAAAAAAACAkwAKAdX9ZwAIAAAAAAABoEWABAAAAAAAAAACEBFgAsO4PC1gAAAAAAAAALQIsAAAAAAAAAACAkAALANb9aQELAAAAAAAAoEWABQAAAAAAAAAAEBJgAcC485MFLAAAAAAAAIAWARYAAAAAAAAAAEBIgAUAAAAAAAAAABASYAHANveDAAAAAAAAAEUCLAAAAAAAAAAAgJAACwC2WcACAAAAAAAAKBJgAQAAAAAAAAAAhARYALDNAhYAAAAAAABAkQALAAAAAAAAAAAgJMACgG0WsAAAAAAAAACKBFgAAAAAAAAAAAAhARYAbLOABQAAAAAAAFAkwAIAAAAAAAAAAAgJsABgmwUsAAAAAAAAgCIBFgAAAAAAAAAAQEiABQDbLGABAAAAAAAAFAmwAAAAAAAAAAAAQgIsANhmAQsAAAAAAACgSIAFAAAAAAAAAAAQEmABwDYLWAAAAAAAAABFAiwAAAAAAAAAAICQAAsAtlnAAgAAAAAAACgSYAEAAAAAAAAAAIQEWACwzQIWAAAAAAAAQJEACwAAAAAAAAAAICTAAoBtFrAAAAAAAAAAigRYAAAAAAAAAAAAIQEWAGyzgAUAAAAAAABQJMACAAAAAAAAAAAICbAAYJsFLAAAAAAAAIAiARYAAAAAAAAAAEBIgAUA2yxgAQAAAAAAABQJsAAAAAAAAAAAAEICLADYZgELAAAAAAAAoEiABQAAAAAAAAAAEBJgAcA2C1gAAAAAAAAARQIsAAAAAAAAAACAkAALALZZwAIAAAAAAAAoEmABAAAAAAAAAACEBFgAsM0CFgAAAAAAAECRAAsAAAAAAAAAACAkwAKAbRawAAAAAAAAAIoEWAAAAAAAAAAAACEBFgBss4AFAAAAAAAAUCTAAgAAAAAAAAAACAmwAGCbBSwAAAAAAACAIgEWAAAAAAAAAABASIAFANssYAEAAAAAAAAUCbAAAAAAAAAAAABCAiwA2GYBCwAAAAAAAKBIgAUAAAAAAAAAABASYAHANgtYAAAAAAAAAEUCLAAAAAAAAAAAgJAACwC2WcACAAAAAAAAKBJgAQAAAAAAAAAAhARYALDNAhYAAAAAAABAkQALAAAAAAAAAAAgJMACgG0WsAAAAAAAAACKBFgAAAAAAAAAAAAhARYAbLOABQAAAAAAAFAkwAIAAAAAAAAAAAgJsABgmwUsAAAAAAAAgCIBFgAAAAAAAAAAQEiABQDbLGABAAAAAAAAFAmwAAAAAAAAAAAAQgIsANhmAQsAAAAAAACgSIAFAAAAAAAAAAAQEmABwDYLWAAAAAAAAABFAiwAAAAAAAAAAICQAAsAtlnAAgAAAAAAACgSYAEAAAAAAAAAAIQEWACwzQIWAAAAAAAAQJEACwAAAAAAAAAAICTAAoBtFrAAAAAAAAAAigRYAAAAAAAAAAAAIQEWAGyzgAUAAAAAAABQJMACAAAAAAAAAAAICbAAYJsFLAAAAAAAAIAiARYAAAAAAAAAAEBIgAUA2yxgAQAAAAAAABQJsAAAAAAAAAAAAEICLADYZgELAAAAAAAAoEiABQAAAAAAAAAAEBJgAcA2C1gAAAAAAAAARQIsAAAAAAAAAACAkAALALZZwAIAAAAAAAAoEmABAAAAAAAAAACEBFgAsM0CFgAAAAAAAECRAAsAAAAAAAAAACAkwAKAbRawAAAAAAAAAIoEWAAAAAAAAAAAACEBFgBss4AFAAAAAAAAUCTAAgAAAAAAAAAACAmwAGCbBSwAAAAAAACAIgEWAAAAAAAAAABASIAFANssYAEAAAAAAAAUCbAAAAAAAAAAAABCAiwA2GYBCwAAAAAAAKBIgAUAAAAAAAAAABASYAHANgtYAAAAAAAAAEUCLAAAAAAAAAAAgJAACwC2WcACAAAAAAAAKBJgAQAAAAAAAAAAhARYALDsWMACAAAAAAAAaBJgAQAAAAAAAAAAhARYALDsWsACAAAAAAAAaBJgAQAAAAAAAAAAhARYALDNAhYAAAAAAABAkQALAAAAAAAAAAAgJMACgGXXAhYAAAAAAABAkwALAAAAAAAAAAAgJMACgGXHAhYAAAAAAABAkwALAAAAAAAAAAAgJMACgGUWsAAAAAAAAACqBFgAAAAAAAAAAAAhARYALLsWsAAAAAAAAACaBFgAAAAAAAAAAAAhARYAbLOABQAAAAAAAFAkwAIAAAAAAAAAAAgJsABg2bWABQAAAAAAANAkwAIAAAAAAAAAAAgJsABg2bGABQAAAAAAANAkwAIAAAAAAAAAAAgJsABgmQUsAAAAAAAAgCoBFgAAAAAAAAAAQEiABQDLrgUsAAAAAAAAgCYBFgAAAAAAAAAAQEiABQDbLGABAAAAAAAAFAmwAAAAAAAAAAAAQgIsAFh2LWABAAAAAAAANAmwAAAAAAAAAAAAQgIsAFh2LGABAAAAAAAANAmwAAAAAAAAAAAAQgIsAFhmAQsAAAAAAACgSoAFAAAAAAAAAAAQEmABwLJrAQsAAAAAAACgSYAFAAAAAAAAAAAQEmABwDYLWAAAAAAAAABFAiwAAAAAAAAAAICQAAsAll0LWAAAAAAAAABNAiwAAAAAAAAAAICQAAsAlh0LWAAAAAAAAABNAiwAAAAAAAAAAICQAAsAllnAAgAAAAAAAKgSYAEAAAAAAAAAAIQEWACw7FrAAgAAAAAAAGgSYAEAAAAAAAAAAIQEWACwzQIWAAAAAAAAQJEACwAAAAAAAAAAICTAAoBl1wIWAAAAAAAAQJMACwAAAAAAAAAAICTAAoBlxwIWAAAAAAAAQJMACwAAAAAAAAAAICTAAoBlFrAAAAAAAAAAqgRYAAAAAAAAAAAAIQEWACy7FrAAAAAAAAAAmgRYAAAAAAAAAAAAIQEWAGyzgAUAAAAAAABQJMACAAAAAAAAAAAICbAAYNm1gAUAAAAAAADQJMACAAAAAAAAAAAICbAAYNmxgAUAAAAAAADQJMACAAAAAAAAAAAICbAAYJkFLAAAAAAAAIAqARYAAAAAAAAAAEBIgAUAy64FLAAAAAAAAIAmARYAAAAAAAAAAEBIgAUA2yxgAQAAAAAAABQJsAAAAAAAAAAAAEICLABYdi1gAQAAAAAAADQJsAAAAAAAAAAAAEICLABYdixgAQAAAAAAADQJsAAAAAAAAAAAAEICLABYZgELAAAAAAAAoEqABQAAAAAAAAAAEBJgAcCyawELAAAAAAAAoEmABQAAAAAAAAAAEBJgAcA2C1gAAAAAAAAARQIsAAAAAAAAAACAkAALAJZdC1gAAAAAAAAATQIsAAAAAAAAAACAkAALAJYdC1gAAAAAAAAATQIsAFgmwAIAAAAAAACoEmABAAAAAAAAAACEBFgAsOxawAIAAAAAAABoEmABAAAAAAAAAACEBFgAsM0CFgAAAAAAAECRAAsAAAAAAAAAACAkwAKAZdcCFgAAAAAAAECTAAsAAAAAAAAAACAkwAKAZccCFgAAAAAAAECTAAsAAAAAAAAAACAkwAKAZRawAAAAAAAAAKoEWAAAAAAAAAAAACEBFgAsuxawAAAAAAAAAJoEWAAAAAAAAAAAACEBFgBss4AFAAAAAAAAUCTAAgAAAAAAAAAACAmwAGDZtYAFAAAAAAAA0CTAAgAAAAAAAAAACAmwAGDZsYAFAAAAAAAA0CTAAgAAAAAAAAAACAmwAGCZBSwAAAAAAACAKgEWAAAAAAAAAABASIAFAMuuBSwAAAAAAACAJgEWAAAAAAAAAABASIAFANssYAEAAAAAAAAUCbAAAAAAAAAAAABCAiwAWHYtYAEAAAAAAAA0CbAAAAAAAAAAAABCAiwAWHYsYAEAAAAAAAA0CbAAAAAAAAAAAABCAiwAWGYBCwAAAAAAAKBKgAUAAAAAAAAAABASYAHAsmsBCwAAAAAAAKBJgAUAAAAAAAAAABASYAHANgtYAAAAAAAAAEUCLAAAAAAAAAAAgJAACwCWXQtYAAAAAAAAAE0CLAAAAAAAAAAAgJAACwCWHQtYAAAAAAAAAE0CLAAAAAAAAAAAgJAACwCWWcACAAAAAAAAqBJgAQAAAAAAAAAAhARYALDsWsACAAAAAAAAaBJgAQAAAAAAAAAAhARYALDNAhYAAAAAAABAkQALAAAAAAAAAAAgJMACgGXXAhYAAAAAAABAkwALAAAAAAAAAAAgJMACgGXHAhYAAAAAAABAkwALAAAAAAAAAAAgJMACgGUWsAAAAAAAAACqBFgAAAAAAAAAAAAhARYALLsWsAAAAAAAAACaBFgAAAAAAAAAAAAhARYAbLOABQAAAAAAAFAkwAIAAAAAAAAAAAgJsABg2bWABQAAAAAAANAkwAIAAAAAAAAAAAgJsABg2bGABQAAAAAAANAkwAIAAAAAAAAAAAgJsABgmQUsAAAAAAAAgCoBFgAAAAAAAAAAQEiABQDLrgUsAAAAAAAAgCYBFgAAAAAAAAAAQEiABQDbLGABAAAAAAAAFAmwAAAAAAAAAAAAQgIsAFh2LWABAAAAAAAANAmwAAAAAAAAAAAAQgIsAFh2LGABAAAAAAAANAmwAAAAAAAAAAAAQgIsAFhmAQsAAAAAAACgSoAFAAAAAAAAAAAQEmABwLJrAQsAAAAAAACgSYAFAAAAAAAAAAAQEmABAAAAAAAAAACEBFgAsM0FIQAAAAAAAECRAAsAAAAAAAAAACAkwAKAZdcCFgAAAAAAAECTAAsAAAAAAAAAACAkwAKAZccCFgAAAAAAAECTAAsAAAAAAAAAACAkwAKAZRawAAAAAAAAAKoEWAAAAAAAAAAAACEBFgAsuxawAAAAAAAAAJoEWAAAAAAAAAAAACEBFgBss4AFAAAAAAAAUCTAAgAAAAAAAAAACAmwAGDZtYAFAAAAAAAA0CTAAgAAAAAAAAAACAmwAGDZsYAFAAAAAAAA0CTAAgAAAAAAAAAACAmwAGCZBSwAAAAAAACAKgEWAAAAAAAAAABASIAFAMuuBSwAAAAAAACAJgEWAAAAAAAAAABASIAFANssYAEAAAAAAAAUCbAAAAAAAAAAAABCAiwAWHYtYAEAAAAAAAA0CbAAAAAAAAAAAABCAiwAWHYsYAEAAAAAAAA0CbAAAAAAAAAAAABCAiwAWGYBCwAAAAAAAKBKgAUAAAAAAAAAABASYAHAsmsBCwAAAAAAAKBJgAUAAAAAAAAAABASYAHANgtYAAAAAAAAAEUCLAAAAAAAAAAAgJAACwCWXQtYAAAAAAAAAE0CLAAAAAAAAAAAgJAACwCWHQtYAAAAAAAAAE0CLAAAAAAAAAAAgJAACwCWWcACAAAAAAAAqBJgAQAAAAAAAAAAhARYALDsWsACAAAAAAAAaBJgAQAAAAAAAAAAhARYALDNAhYAAAAAAABAkQALAAAAAAAAAAAgJMACgGXXAhYAAAAAAABAkwALAAAAAAAAAAAgJMACgGXHAhYAAAAAAABAkwALAAAAAAAAAAAgJMACgGUWsAAAAAAAAACqBFgAAAAAAAAAAAAhARYALLsWsAAAAAAAAACaBFgAAAAAAAAAAAAhARYALDsWsAAAAAAAAACaBFgAAAAAAAAAAAAhARYALHssYAEAAAAAAAA0CbAAAAAAAAAAAABCAiwAWHYsYAEAAAAAAAA0CbAAAAAAAAAAAABCAiwAWGYBCwAAAAAAAKBKgAUAAAAAAAAAABASYAHAsscCFgAAAAAAAECTAAsAAAAAAAAAACAkwAKAZW8WsAAAAAAAAACaBFgAAAAAAAAAAAAhARYALHssYAEAAAAAAAA0CbAAAAAAAAAAAABCAiwAWHYsYAEAAAAAAAA0CbAAAAAAAAAAAABCAiwAWGYBCwAAAAAAAKBKgAUAAAAAAAAAABASYAHAsscCFgAAAAAAAECTAAsAAAAAAAAAACAkwAKAZW8WsAAAAAAAAACaBFgAAAAAAAAAAAAhARYALHssYAEAAAAAAAA0CbAAAAAAAAAAAABCAiwAWHYsYAEAAAAAAAA0CbAAAAAAAAAAAABCAiwAWGYBCwAAAAAAAKBKgAUAAAAAAAAAABASYAHAsscCFgAAAAAAAECTAAsAAAAAAAAAACAkwAKAZW8WsAAAAAAAAACaBFgAAAAAAAAAAAAhARYALHssYAEAAAAAAAA0CbAAAAAAAAAAAABCAiwAWHYsYAEAAAAAAAA0CbAAAAAAAAAAAABCAiwAWGYBCwAAAAAAAKBKgAUAAAAAAAAAABASYAHAsscCFgAAAAAAAECTAAsAAAAAAAAAACAkwAKAZW8WsAAAAAAAAACaBFgAAAAAAAAAAAAhARYALHssYAEAAAAAAAA0CbAAAAAAAAAAAABCAiwAWHYsYAEAAAAAAAA0CbAAAAAAAAAAAABCAiwAWGYBCwAAAAAAAKBKgAUAAAAAAAAAABASYAHAsscCFgAAAAAAAECTAAsAAID/2bv/YMvr+r7jr++5+3uBBRaCBK0ItAQNixV/Y2xSLQ02Vm3ZoDI4C9577gJFq2lSnLTJGmdqopOQH9IEkMRoEluwmTroRILpJFNQW4oZf0/amYZmKmSaYMn4Axb23k//IEyELsu9373f8znncx6Pv3bvveec13+7e+9z3wcAAAAAAOhJgAUALRu5gAUAAAAAAAAwJAEWAAAAAAAAAABATwIsAGjZqgtYAAAAAAAAAEMSYAEAAAAAAAAAAPQkwAKAlnUuYAEAAAAAAAAMSYAFAAAAAAAAAADQkwALAFrmAhYAAAAAAADAoARYAAAAAAAAAAAAPQmwAKBlqy5gAQAAAAAAAAxJgAUAAAAAAAAAANCTAAsAWjZyAQsAAAAAAABgSAIsAAAAAAAAAACAngRYANCyVRewAAAAAAAAAIYkwAIAAAAAAAAAAOhJgAUALetcwAIAAAAAAAAYkgALAAAAAAAAAACgJwEWALTMBSwAAAAAAACAQQmwAAAAAAAAAAAAehJgAUDLVl3AAgAAAAAAABiSAAsAAAAAAAAAAKAnARYAtGzkAhYAAAAAAADAkARYAAAAAAAAAAAAPQmwAKBlKy5gAQAAAAAAAAxJgAUAAAAAAAAAANCTAAsAWjZyAQsAAAAAAABgSAIsAAAAAAAAAACAngRYANAyF7AAAAAAAAAABiXAAgAAAAAAAAAA6EmABQAtW3EBCwAAAAAAAGBIAiwAAAAAAAAAAICeBFgA0LKRC1gAAAAAAAAAQxJgAQAAAAAAAAAA9CTAAoCWrbiABQAAAAAAADAkARYAAAAAAAAAAEBPAiwAaNnIBSwAAAAAAACAIQmwAAAAAAAAAAAAehJgAUDLXMACAAAAAAAAGJQACwAAAAAAAAAAoCcBFgC0bMUFLAAAAAAAAIAhCbAAAAAAAAAAAAB6EmABQMtGLmABAAAAAAAADEmABQAAAAAAAAAA0JMACwBatuICFgAAAAAAAMCQBFgAAAAAAAAAAAA9CbAAoGUjF7AAAAAAAAAAhiTAAgAAAAAAAAAA6EmABQAtcwELAAAAAAAAYFACLAAAAAAAAAAAgJ4EWADQshUXsAAAAAAAAACGJMACAAAAAAAAAADoSYAFAC0buYAFAAAAAAAAMCQBFgAAAAAAAAAAQE8CLABo2YoLWAAAAAAAAABDEmABAAAAAAAAAAD0JMACgJaNXMACAAAAAAAAGJIACwAAAAAAAAAAoCcBFgC0zAUsAAAAAAAAgEEJsAAAAAAAAAAAAHoSYAFAy1ZcwAIAAAAAAAAYkgALAAAAAAAAAACgJwEWALRs5AIWAAAAAAAAwJAEWAAAAAAAAAAAAD0JsACgZSsuYAEAAAAAAAAMSYAFAAAAAAAAAADQkwALAFo2cgELAAAAAAAAYEgCLAAAAAAAAAAAgJ4EWADQMhewAAAAAAAAAAYlwAIAAAAAAAAAAOhJgAUALVtxAQsAAAAAAABgSAIsAAAAAAAAAACAngRYANCykQtYAAAAAAAAAEMSYAEAAAAAAAAAAPQkwAKAlq24gAUAAAAAAAAwJAEWAAAAAAAAAABATwIsAGjZyAUsAAAAAAAAgCEJsAAAAAAAAAAAAHoSYAFAyxZcwAIAAAAAAAAYkgALAAAAAAAAAACgJwEWALTskAtYAAAAAAAAAEMSYAEAAAAAAAAAAPQkwAKAlo1cwAIAAAAAAAAYkgALAAAAAAAAAACgJwEWALTskAtYAAAAAAAAAEMSYAEAAAAAAAAAAPQkwAKAli24gAUAAAAAAAAwJAEWAAAAAAAAAABATwIsAGiZC1gAAAAAAAAAgxJgAQAAAAAAAAAA9CTAAoCWPeoCFgAAAAAAAMCQBFgAAAAAAAAAAAA9CbAAoGWbXMACAAAAAAAAGJIACwAAAAAAAAAAoCcBFgC07FEXsAAAAAAAAACGJMACAAAAAAAAAADoSYAFAC1bcAELAAAAAAAAYEgCLAAAAAAAAAAAgJ4EWADQsk0uYAEAAAAAAAAMSYAFAAAAAAAAAADQkwALAFr2iAtYAAAAAAAAAEMSYAEAAAAAAAAAAPQkwAKAlm1yAQsAAAAAAABgSAIsAAAAAAAAAACAngRYANCyR1zAAgAAAAAAABiSAAsAWuYtCAEAAAAAAAAGJcACAAAAAAAAAADoSYAFAC1zAQsAAAAAAABgUAIsAAAAAAAAAACAngRYANCyR1zAAgAAAAAAABiSAAsAAAAAAAAAAKAnARYAtGyTC1gAAAAAAAAAQxJgAQAAAAAAAAAA9CTAAoCWHXQBCwAAAAAAAGBIAiwAAAAAAAAAAICeBFgA0LLNLmABAAAAAAAADEmABQAAAAAAAAAA0JMACwBa5gIWAAAAAAAAwKAEWAAAAAAAAADKTa2UAAAgAElEQVQAAD0JsACgZQ+7gAUAAAAAAAAwJAEWAAAAAAAAAABATwIsAGjZFhewAAAAAAAAAIYkwAIAAAAAAAAAAOhJgAUALXvIBSwAAAAAAACAIQmwAAAAAAAAAAAAehJgAUDLtriABQAAAAAAADAkARYAAAAAAAAAAEBPAiwAaNlWF7AAAAAAAAAAhiTAAgAAAAAAAAAA6EmABQAt+7YLWAAAAAAAAABDEmABAAAAAAAAAAD0JMACgJZtcwELAAAAAAAAYEgCLAAAAAAAAAAAgJ4EWADQsm+6gAUAAAAAAAAwJAEWAAAAAAAAAABATwIsAGjZdhewAAAAAAAAAIYkwAIAAAAAAAAAAOhJgAUALdvpAhYAAAAAAADAkARYAAAAAAAAAAAAPQmwAKBl/9cFLAAAAAAAAIAhCbAAAAAAAAAAAAB6EmABQMuOdQELAAAAAAAAYEgCLAAAAAAAAAAAgJ4EWADQsj93AQsAAAAAAABgSAIsAAAAAAAAAACAngRYANCyE1zAAgAAAAAAABiSAAsAAAAAAAAAAKAnARYAtOx7XcACAAAAAAAAGJIACwAAAAAAAAAAoCcBFgC07CsuYAEAAAAAAAAMSYAFAAAAAAAAAADQkwALAFr2PBewAAAAAAAAAIYkwAIAAAAAAAAAAOhJgAUALTvgAhYAAAAAAADAkARYAAAAAAAAAAAAPQmwAKBhXVzAAgAAAAAAABiSAAsAAAAAAAAAAKAnARYAAAAAAAAAAEBPAiwAaJe3HwQAAAAAAAAYmAALAAAAAAAAAACgJwEWALTLBSwAAAAAAACAgQmwAAAAAAAAAAAAehJgAUC7XMACAAAAAAAAGJgACwAAAAAAAAAAoCcBFgC0ywUsAAAAAAAAgIEJsAAAAAAAAAAAAHoSYAFAu1zAAgAAAAAAABiYAAsAAAAAAAAAAKAnARYAtMsFLAAAAAAAAICBCbAAAAAAAAAAAAB6EmABQLtcwAIAAAAAAAAYmAALAAAAAAAAAACgJwEWALTLBSwAAAAAAACAgQmwAAAAAAAAAAAAehJgAUC7XMACAAAAAAAAGJgACwAAAAAAAAAAoCcBFgC0ywUsAAAAAAAAgIEJsAAAAAAAAAAAAHoSYAFAu1zAAgAAAAAAABiYAAsAAAAAAAAAAKAnARYAtMsFLAAAAAAAAICBCbAAAAAAAAAAAAB6EmABAAAwhK72AAAAAAAAmAQBFgC0y1sQAlDT5toDAAAAAABgEgRYANCuTbUHADDXttUeAAAAAAAAkyDAAoB2bak9AIC55s8hAAAAAADmggALANq1UPZmofYIAOZPSbokW2vvAAAAAACASRBgAUDLnun6CAAVXJNjExEwADStS1d7AgAAAEwLARYAtOxgdtWeAMAcOpSTak8AAAZWsqn2BAAAAJgWAiwAaNmj2V17AgBz6JA/fwCgeZ2LywAAAPA4ARYAtGzkB+AAVOECFgC0rsvW2hMAAABgWgiwAKBtfgAOwOSN8uzaEwCAgZVsrz0BAAAApoUACwBatppn1Z4AwBwqeU7tCQDA4E6sPQAAAACmhQALAFrWuUACQAVdTq89AQAY3O6SdLVHAAAAwDQQYAFAy/wAHIAaSs6oPQEAGNzmjHNc7REAAAAwDQRYANAybwEFwISVvVlI8tzaOwCAiTi19gAAAACYBgIsAGjbOeVANtUeAcAcOSlnJdlRewYAMAGuLgMAAEASARYAtG5r7stZtUcAMEdWc27tCQDAhLi6DAAAAEkEWADQvpI9tScAMEdKnl97AgAwMQIsAAAAiAALANrX5bzaEwCYIyUX1J4AAExIyfNqTwAAAIBpsKn2AABgcC+rPQCA+VDG2ZzkxbV3AAAT0rm4DAAAAIkLWAAwD15cDoiuAZiIFyTZUXsEADAxzyxXZ3ftEQAAAFCbAAsA2rcz/9vbEAIwAV1+sPYEAGDCDuX5tScAAABAbQIsAJgHo7yy9gQA5sBqfrj2BABgwkpeXnsCAAAA1CbAAoD54AfiAAyqXJFj0+WC2jsAgAnz5z8AAAAIsABgTryyjLOj9ggAGraQVyfZXHsGADBhJS8te7NQewYAAADUJMACgPmwLckP1R4BQMO6XFx7AgBQxa7syotqjwAAAICaBFgAMC+6vK72BADaVPZlW5Ifqb0DAKhkIRfVngAAAAA1CbAAYF6UXFz2ZkvtGQA0aGtek+S42jMAgEqKAAsAAID5JsACgPlxQk7M3689AoAGreZNtScAAFWdX67I99YeAQAAALUIsABgvlxSewAAbSmX5+R0+ce1dwAAVY2yKRfXHgEAAAC1CLAAYJ6U7C3XeIsoADbQ5rwl8Ra3AID/8AMAAMD8EmABwHzZmYPeJgqADXVF7QEAwFR4WXlrnl17BAAAANQgwAKA+bNYewAAbSjjXJjkubV3AABToctCLq89AgAAAGoQYAHA/Hlh2Z8X1x4BQAO6vLP2BABgqlxR9mah9ggAAACYNAEWAMyjVT8wB+DolHHOTcmFtXcAAFPlWTkhP1x7BAAAAEyaAAsA5tM/Lftzeu0RAMy0n0jS1R4BAEydt9UeAAAAAJMmwAKA+bQpq3lH7REAzKaymHOSvKn2DgBgKv2Dspg9tUcAAADAJAmwAGB+jcv+nFZ7BAAzaCEHkizUngEATKUuI297DwAAwHwRYAHA/NqW1byr9ggAZktZzJ6UXFx7BwAw1d5cFvOc2iMAAABgUgRYADDflnxTHIB1GeX98W9JAODINmeUf117BAAAAEyKb5oDwHzbklF+pvYIAGZDGef1SS6svQMAmAlvKVfm7NojAAAAYBIEWADApWUxL609AoDpVq7J1iTvr70DAJgZC1nJe2qPAAAAgEkQYAEAXRbygXLA3wsAOIKDuTbJWbVnAAAzZW9Zyt+rPQIAAACG5getAEBScn6+nn21ZwAwncpizknyrto7AIAZ1OUX/IcfAAAAWucfvgDAY7q8vyzmlNozAJgu5UBGGeXGJFtrbwEAZtILcl+Wa48AAACAIQmwAIDHnZiF/HLtEQBMmfvytiSvqD0DAJhp7y37c1rtEQAAADAUARYA8DdKfrSM8/raMwCYDmUxe5L8bO0dAMDM25WVXF97BAAAAAxFgAUAPNlNZZxTa48AoK6yL9syym/HWw8CABuhy+vKUi6tPQMAAACGIMACAJ7spCQfKklXewgAFW3JLyX5/tozAICGdLm+7M/ptWcAAADARhNgAQCHc2GW8mO1RwBQR1nO5UnGtXcAAM3ZldV8pOzNQu0hAAAAsJEEWADA4XV5b9mfH6w9A4DJKss5LyXX194BADTrFTkx76k9AgAAADaSAAsAeCqbspp/XxbzzNpDAJiMMs6pKfl4ku21twAADSu5tizn4tozAAAAYKMIsACAI/mejPKx8g4/iAdoXbksO9PltiTPrr0FAGhel5KbyzjfV3sIAAAAbAQBFgDwdF6Sb+XD5YC/NwC0quzNQrbnoyk5v/YWAGBuHJfkE+XynFx7CAAAABwtP0gFAJ5el4tzf36u9gwANl5JupyYX03y2tpbAIC5c2Y255NlnB21hwAAAMDREGABAGtT8i/KUt5eewYAG2ycX0zJUu0ZAMDcelG6/FY5kE21hwAAAEBfAiwAYO26XFfGWaw9A4CNUZbzb5K8rfYOAGDOlbwh9+XXywHfrwYAAGA2+QctALAeXZIbyjhvrj0EgP5K0pWl/HxK3lV7CwDAX7ssX8/15bF/dwIAAMBMEWABAOs1SvLhspR9tYcAsH4l6bKUX0qXd9beAgDwBF32Zzk3uIQFAADArPEPWQCgj4V0ubmMs1x7CABrV/ZlW8b5aLpcU3sLAMBhlSzl/ny4HMim2lMAAABgrQRYAEBfoyS/Wsb58dpDAHh65erszpbckeSS2lsAAI6o5NJ8PR8r4+yoPQUAAADWQoAFAByNLsn7yjgfKHuzUHsMAIdXlvO382juSvKK2lsAANaky+uS/GFZzCm1pwAAAMDTEWABABvh6pyQj5erckztIQA8UVnOa1Nyd5Kza28BAFinF2WUz5X9+f7aQwAAAOBIBFgAwEb5RzmUz5S35qzaQwBIyoGMynLenZKPJ9lVew8AQE+nZzWfK0t5Y+0hAAAA8FQEWADARjo3C7m7LOe1tYcAzLOyP6flvnw6JT+Vx94uFgBglu1Ml4+Wca4re7Ol9hgAAAB4MgEWALDRjk/Jx8s47y3jbK49BmDelKW8Iav5QpIfqr0FAGCD/fOcmM+UK721MgAAANNFgAUADKFLcm3iG+MAk1Kuzu6ylN9Ml99Nsrv2HgCAQZScn5XcU5YzLi59AgAAMCUEWADAkF6YldxTxrnSN8YBhlOW8sY8mq+my1tqbwEAmICdKbkhy/l0GefM2mMAAACgK+N8PsnfrT0EAGjenVnNuPtgvlZ7CEArymLOyUKuS8k/rL0FAKCSh9Ll3flGrutuzSO1xwAAADCfBFgAwCQdTPLe7Mz7uuvyUO0xALOq7Mvx2ZKfTnJ1ks219wAATIH/kS4/1t2Q22oPAQAAYP4IsACAGv4sXX4iN+SWLim1xwDMinJZdmZ7rkny40lOrL0HAGDqlNyR5Ce7m3J37SkAAADMDwEWAFBPyV3pcm13Y+6sPQVgmpVxdiQZJ7k2ySmV5wAATLuS5LZ0+anuhnyh9hgAAADaJ8ACAOoruSuP/Q/lP6o9BWCalMtzcjbn6jz2VoMn1d4DADBzSu7KKD+XG/IJF5gBAAAYigALAJgmv5/k53Nj7vCNcWCelf15cVazlOTSJNtr7wEAmHld7slqPpAut3Q35ju15wAAANAWARYAMI2+lC7XZUf+XXddHqo9BmAS/vra1SVJlpLsqb0HAKBRf5Xkd1LyG91Nubv2GAAAANogwAIAptmD6fI7Kbm5uzGfrz0GYKOVfTk+m/P6jPLGlLwqyabamwAA5sj/THJLRrml+7X8ce0xAAAAzC4BFgAwK76YLrdmNbd0N+W/1x4D0FdZznkpuSjJRUleHtEVAMA0+HqS25N8Kpvzn7rr80DtQQAAAMwOARYAMIu+kJLbspBP5Rn5L92BHKo9COBwyjXZmkdzXlZzQbr8QEouSPI9tXcBAHBEJcnX0uWulNyVki/kwXy1uzWP1B4GAADAdBJgAQCz7sEkf5CS/5yFfDar+ePuxjxaexQwX8q+HJ8tOSNdzkjJWSnZky57kpwdF64AAFrwaJI/SfK1JPem5N6Mcm+63J9R/jKH8kB3Y75TeSMAAACVCLAAgNZ8J13uScmX0+WLWclXsjVf9fYRzKqyL9uyPdvX/cCVbMtCj8cdyvaUbFv340YTflyX7UmPx5XsSJet63zU5qzmmHTpkhyfx4Kqk1KyO11OSvKMJLvWvQUAgNY8lOThJKtJ/qryFgAAYH48mC4lJYeSfDPJd5I8kC4PpOQvUvKXSe5Pyb05lD/tPpSH685tkwALAJgX30ryv9LlT1NyX7o8kNV8I8k30uWbKb2+Qb45XY7psaXf40q2pMvOXo8rPR7XZUvS83F9Xi/ZmmRHj9fr97jS83F9dz4WC60/iAIAAAAAANg4f54u96bka0m+lC5fzCP5Yvcb+Yvaw2aZAAsAAAAAAAAAAObb/Sn5r0nuTPKZbMs93a/kYO1Rs0KABQAAAAAAAAAAfLeHk/y3dLk9yadyaj7fHchq7VHTSoAFAAAAAAAAAAAcyf9JcntKPpGH88nuI/l27UHTRIAFAAAAAAAAAACs1cPp8ukkt2Yhv9v923yr9qDaBFgAAAAAAAAAAEAf30zJLSn5YPfBfK72mFoEWAAAAAAAAAAAwNH6UrrclIP5SPehPFh7zCSNag8AAAAAAAAAAABm3rkp+eVsyf1lnA+XK3N27UGTIsACAAAAAAAAAAA2yrYkl2UlXylLubUs5qW1Bw1NgAUAAAAAAAAAAGy0hXS5OKN8tizlzrKcV9YeNBQBFgAAAAAAAAAAMJwuF6Tkj8o4d5TFnF97zkYTYAEAAAAAAAAAAJPw6oxyd1nOb5XFPLP2mI0iwAIAAAAAAAAAACalS8mlGeVPylJ+tlyVY2oPOloCLAAAAAAAAAAAYNJ2pMu/zKF8pSznn9QeczQEWAAAAAAAAAAAQC1/KyX/oSzntll9W0IBFgAAAAAAAAAAUFfJj2SUL5elvL0cmK2maabGAgAAAAAAAAAAzdqVLr+Y+/L7ZX9Oqz1mrQRYAAAAAAAAAADANHlVVvPlspQ31h6yFgIsAAAAAAAAAABg2hyfLh8ty7mxjLOj9pgjEWABAAAAAAAAAADTqWQpyWfLOGfWnvJUBFgAAAAAAAAAAMA025Pk82Upb6g95HAEWAAAAAAAAAAAwLQ7Ll0+Vsb56ZJ0tcd8NwEWAAAAAAAAAAAwC0ZJDmQpt5R3ZHvtMY8TYAEAAAAAAAAAALOjy8X5dv6gXJ6Ta09JBFgAAAAAAAAAAMDseVk2584yzpm1hwiwAAAAAAAAAACAWfR3ktxVFrOn5ggBFgAAAAAAAAAAMKtOySh/WMZ5Sa0BAiwAAAAAAAAAAGCWnZDk9rI/F9R4cQEWAAAAAAAAAAAw63ZlNbeXpbx80i8swAIAAAAAAAAAAFqwM11+ryznhZN8UQEWAAAAAAAAAADQiuNS8ntlKc+b1AsKsAAAAAAAAAAAgJaclC53lCtzxiReTIAFAAAAAAAAAAC05tSs5JPlrTlx6BcSYAEAAAAAAAAAAC36vmzKfyzXZOuQLyLAAgAAAAAAAAAA2lTyAzmY3yxJN9RLCLAAAAAAAAAAAICWXZLl/ORQTy7AAgAAAAAAAAAA2lby7rKUi4Z4agEWAAAAAAAAAADQulG6/Ha5Mmds/BMDAAAAAAAAAAC074Ss5NbyjmzfyCcVYAEAAAAAAAAAAPPiBfl23reRTyjAAgAAAAAAAAAA5snVZTmv3agnE2ABAAAAAAAAAADzpEvJzeWqPGMjnkyABQAAAAAAAAAAzJuT82huLkl3tE8kwAIAAAAAAAAAAOZPl9dknLcc7dMIsAAAAAAAAAAAgHn1C2UxpxzNEwiwAAAAAAAAAACAeXViulx3NE8gwAIAAAAAAAAAAOZXlzeV5bym78MFWAAAAAAAAAAAwHwr+ZVyTbb2eagACwAAAAAAAAAAmHdn5GDe3ueBAiwAAAAAAAAAAIDkX5VxTl3vgwRYAAAAAAAAAAAAybEpec96HyTAAgAAAAAAAAAASJIu+8pizlnPQwRYAAAAAAAAAAAAj1nIQg6s5wECLAAAAAAAAAAAgMeV7C3LOW+tXy7AAgAAAAAAAAAA+BtdytqvYAmwAAAAAAAAAAAAnuh1a72CJcACAAAAAAAAAAB4oi6reedavlCABQAAAAAAAAAA8GRd3lSuyrOe7ssEWAAAAAAAAAAAAP+/zTmUf/Z0XyTAAgAAAAAAAAAAOLzlclWOOdIXCLAAAAAAAAAAAAAOb1dWcsmRvkCABQAAAAAAAAAA8FRKlo70aQEWAAAAAAAAAADAU3tJWcrzn+qTAiwAAAAAAAAAAIAju+KpPiHAAgAAAAAAAAAAOJIuby7jbD7cpwRYAAAAAAAAAAAAR7Y7XV51uE8IsAAAAAAAAAAAAJ5OyY8e7sMCLAAAAAAAAAAAgKf3hnJNtj75gwIsAAAAAAAAAACAp3d8DubVT/6gAAsAAAAAAAAAAGAturzmyR8SYAEAAAAAAAAAAKxFyUVP/pAACwAAAAAAAAAAYG2eU67M2d/9AQEWAAAAAAAAAADAWq088QqWAAsAAAAAAAAAAGDtLvzu3wiwAAAAAAAAAAAA1u6CsjcLj/9GgAUAAAAAAAAAALB2x+WEPPfx3wiwAAAAAAAAAAAA1qPLBY//UoAFAAAAAAAAAACwHkWABQAAAAAAAAAA0NdLHv+FAAsAAAAAAAAAAGB9ziyXZWciwAIAAAAAAAAAAFivUXbmeY/9AgAAAAAAAAAAgPUpOTcRYAEAAAAAAAAAAPQhwAIAAAAAAAAAAOil5OxEgAUAAAAAAAAAANDHcxIBFgAAAAAAAAAAQB/PLgcyEmABAAAAAAAAAACs37b8WZ4hwAIAAAAAAAAAAOhjIacLsAAAAAAAAAAAAProcpoACwAAAAAAAAAAoI8uuwVYAAAAAAAAAAAA/ZwkwAIAAAAAAAAAAOijuIAFAAAAAAAAAADQlwALAAAAAAAAAACgp2MFWAAAAAAAAAAAAP1sFWABAAAAAAAAAAD08//YuWMUO6sADMPfj6OiRBFGU0+wiwTBJbkDN2Mp7khkSJ0pBQkMaiwizLW5hVpYvEVuxOeBwznlt4CX854ACwAAAAAAAAAAoPEDFgAAAAAAAAAAQCTAAgAAAAAAAAAAiK4EWAAAAAAAAAAAAJEACwAAAAAAAAAAIBJgAQAAAAAAAAAARAIsAAAAAAAAAACASIAFAAAAAAAAAAAQCbAAAAAAAAAAAAAiARYAAAAAAAAAAEAkwAIAAAAAAAAAAIgEWAAAAAAAAAAAAJEACwAAAAAAAAAAIBJgAQAAAAAAAAAARAIsAAAAAAAAAACASIAFAAAAAAAAAAAQCbAAAAAAAAAAAAAiARYAAAAAAAAAAEAkwAIAAAAAAAAAAIgEWAAAAAAAAAAAAJEACwAAAAAAAAAAIBJgAQAAAAAAAAAARAIsAAAAAAAAAACASIAFAAAAAAAAAAAQCbAAAAAAAAAAAAAiARYAAAAAAAAAAEAkwAIAAAAAAAAAAIgEWAAAAAAAAAAAAJEACwAAAAAAAAAAIBJgAQAAAAAAAAAARAIsAAAAAAAAAACASIAFAAAAAAAAAAAQCbAAAAAAAAAAAAAiARYAAAAAAAAAAEAkwAIAAAAAAAAAAIgEWAAAAAAAAAAAAJEACwAAAAAAAAAAIBJgAQAAAAAAAAAARAIsAAAAAAAAAACASIAFAAAAAAAAAAAQCbAAAAAAAAAAAAAiARYAAAAAAAAAAEAkwAIAAAAAAAAAAIgEWAAAAAAAAAAAAJEACwAAAAAAAAAAIBJgAQAAAAAAAAAARAIsAAAAAAAAAACASIAFAAAAAAAAAAAQCbAAAAAAAAAAAAAiARYAAAAAAAAAAEAkwAIAAAAAAAAAAIgEWAAAAAAAAAAAAJEACwAAAAAAAAAAIBJgAQAAAAAAAAAARAIsAAAAAAAAAACASIAFAAAAAAAAAAAQCbAAAAAAAAAAAAAiARYAAAAAAAAAAEAkwAIAAAAAAAAAAIgEWAAAAAAAAAAAAJEACwAAAAAAAAAAIBJgAQAAAAAAAAAARAIsAAAAAAAAAACASIAFAAAAAAAAAAAQCbAAAAAAAAAAAAAiARYAAAAAAAAAAEAkwAIAAAAAAAAAAIgEWAAAAAAAAAAAAJEACwAAAAAAAAAAIBJgAQAAAAAAAAAARAIsAAAAAAAAAACASIAFAAAAAAAAAAAQCbAAAAAAAAAAAAAiARYAAAAAAAAAAEAkwAIAAAAAAAAAAIgEWAAAAAAAAAAAAJEACwAAAAAAAAAAIBJgAQAAAAAAAAAARAIsAAAAAAAAAACASIAFAAAAAAAAAAAQCbAAAAAAAAAAAAAiARYAAAAAAAAAAEAkwAIAAAAAAAAAAIgEWAAAAAAAAAAAAJEACwAAAAAAAAAAIBJgAQAAAAAAAAAARAIsAAAAAAAAAACASIAFAAAAAAAAAAAQCbAAAAAAAAAAAAAiARYAAAAAAAAAAEAkwAIAAAAAAAAAAIgEWAAAAAAAAAAAAJEACwAAAAAAAAAAIBJgAQAAAAAAAAAARAIsAAAAAAAAAACASIAFAAAAAAAAAAAQCbAAAAAAAAAAAAAiARYAAAAAAAAAAEAkwAIAAAAAAAAAAIgEWAAAAAAAAAAAAJEACwAAAAAAAAAAIBJgAQAAAAAAAAAARAIsAAAAAAAAAACASIAFAAAAAAAAAAAQCbAAAAAAAAAAAAAiARYAAAAAAAAAAEAkwAIAAAAAAAAAAIgEWAAAAAAAAAAAAJEACwAAAAAAAAAAIBJgAQAAAAAAAAAARAIsAAAAAAAAAACASIAFAAAAAAAAAAAQCbAAAAAAAAAAAAAiARYAAAAAAAAAAEAkwAIAAAAAAAAAAIgEWAAAAAAAAAAAAJEACwAAAAAAAAAAIBJgAQAAAAAAAAAARAIsAAAAAAAAAACASIAFAAAAAAAAAAAQCbAAAAAAAAAAAAAiARYAAAAAAAAAAEAkwAIAAAAAAAAAAIgEWAAAAAAAAAAAAJEACwAAAAAAAAAAIBJgAQAAAAAAAAAARAIsAAAAAAAAAACASIAFAAAAAAAAAAAQCbAAAAAAAAAAAAAiARYAAAAAAAAAAEAkwAIAAAAAAAAAAIgEWAAAAAAAAAAAAJEACwAAAAAAAAAAIBJgAQAAAAAAAAAARAIsAAAAAAAAAACASIAFAAAAAAAAAAAQCbAAAAAAAAAAAAAiARYAAAAAAAAAAEAkwAIAAAAAAAAAAIgEWAAAAAAAAAAAAJEACwAAAAAAAAAAIBJgAQAAAAAAAAAARAIsAAAAAAAAAACASIAFAAAAAAAAAAAQCbAAAAAAAAAAAAAiARYAAAAAAAAAAEAkwAIAAAAAAAAAAIgEWAAAAAAAAAAAAJEACwAAAAAAAAAAIBJgAQAAAAAAAAAARAIsAAAAAAAAAACASIAFAAAAAAAAAAAQCbAAAAAAAAAAAAAiARYAAAAAAAAAAEAkwAIAAAAAAAAAAIgEWAAAAAAAAAAAAJEACwAAAAAAAAAAIBJgAQAAAAAAAAAARAIsAAAAAAAAAACASIAFAAAAAAAAAAAQCbAAAAAAAAAAAAAiARYAAAAAAAAAAEAkwAIAAAAAAAAAAIgEWAAAAAAAAAAAAJEACwAAAAAAAAAAIBJgAQAAAAAAAAAARAIsAAAAAAAAAACASIAFAAAAAAAAAAAQCbAAAAAAAAAAAAAiARYAANqP1fwAACAASURBVAAAAAAAAEAkwAIAAAAAAAAAAIgEWAAAAAAAAAAAAJEACwAAAAAAAAAAIBJgAQAAAAAAAAAARAIsAAAAAAAAAACASIAFAAAAAAAAAAAQCbAAAAAAAAAAAAAiARYAAAAAAAAAAEAkwAIAAAAAAAAAAIgEWAAAAAAAAAAAAJEACwAAAAAAAAAAIBJgAQAAAAAAAAAARAIsAAAAAAAAAACASIAFAAAAAAAAAAAQCbAAAAAAAAAAAAAiARYAAAAAAAAAAEAkwAIAAAAAAAAAAIgEWAAAAAAAAAAAAJEACwAAAAAAAAAAIBJgAQAAAAAAAAAARAIsAAAAAAAAAACASIAFAAAAAAAAAAAQCbAAAAAAAAAAAAAiARYAAAAAAAAAAEAkwAIAAAAAAAAAAIgEWAAAAAAAAAAAAJEACwAAAAAAAAAAIBJgAQAAAAAAAAAARAIsAAAAAAAAAACASIAFAAAAAAAAAAAQCbAAAAAAAAAAAAAiARYAAAAAAAAAAEAkwAIAAAAAAAAAAIgEWAAAAAAAAAAAAJEACwAAAAAAAAAAIBJgAQAAAAAAAAAARAIsAAAAAAAAAACASIAFAAAAAAAAAAAQCbAAAAAAAAAAAAAiARYAAAAAAAAAAEAkwAIAAAAAAAAAAIgEWAAAAAAAAAAAAJEACwAAAAAAAAAAIBJgAQAAAAAAAAAARAIsAAAAAAAAAACASIAFAAAAAAAAAAAQCbAAAAAAAAAAAAAiARYAAAAAAAAAAEAkwAIAAAAAAAAAAIgEWAAAAAAAAAAAAJEACwAAAAAAAAAAIBJgAQAAAAAAAAAARAIsAAAAAAAAAACASIAFAAAAAAAAAAAQCbAAAAAAAAAAAAAiARYAAAAAAAAAAEAkwAIAAAAAAAAAAIgEWAAAAAAAAAAAAJEACwAAAAAAAAAAIBJgAQAAAAAAAAAARAIsAAAAAAAAAACASIAFAAAAAAAAAAAQCbAAAAAAAAAAAAAiARYAAAAAAAAAAEAkwAIAAAAAAAAAAIgEWAAAAAAAAAAAAJEACwAAAAAAAAAAIBJgAQAAAAAAAAAARAIsAAAAAAAAAACASIAFAAAAAAAAAAAQCbAAAAAAAAAAAAAiARYAAAAAAAAAAEAkwAIAAAAAAAAAAIgEWAAAAAAAAAAAAJEACwAAAAAAAAAAIBJgAQAAAAAAAAAARAIsAAAAAAAAAACASIAFAAAAAAAAAAAQCbAAAAAAAAAAAAAiARYAAAAAAAAAAEAkwAIAAAAAAAAAAIgEWAAAAAAAAAAAAJEACwAAAAAAAAAAIBJgAQAAAAAAAAAARAIsAAAAAAAAAACASIAFAAAAAAAAAAAQCbAAAAAAAAAAAAAiARYAAAAAAAAAAEAkwAIAAAAAAAAAAIgEWAAAAAAAAAAAAJEACwAAAAAAAAAAIBJgAQAAAAAAAAAARAIsAAAAAAAAAACASIAFAAAAAAAAAAAQCbAAAAAAAAAAAAAiARYAAAAAAAAAAEAkwAIAAAAAAAAAAIgEWAAAAAAAAAAAAJEACwAAAAAAAAAAIBJgAQAAAAAAAAAARAIsAAAAAAAAAACASIAFAAAAAAAAAAAQCbAAAAAAAAAAAAAiARYAAAAAAAAAAEAkwAIAAAAAAAAAAIgEWAAAAAAAAAAAAJEACwAAAAAAAAAAIBJgAQAAAAAAAAAARAIsAAAAAAAAAACASIAFAAAAAAAAAAAQCbAAAAAAAAAAAAAiARYAAAAAAAAAAEAkwAIAAAAAAAAAAIgEWAAAAAAAAAAAAJEACwAAAAAAAAAAIBJgAQAAAAAAAAAARAIsAAAAAAAAAACASIAFAAAAAAAAAAAQCbAAAAAAAAAAAAAiARYAAAAAAAAAAEAkwAIAAAAAAAAAAIgEWAAAAAAAAAAAAJEACwAAAAAAAAAAIBJgAQAAAAAAAAAARAIsAAAAAAAAAACASIAFAAAAAAAAAAAQCbAAAAAAAAAAAAAiARYAAAAAAAAAAEAkwAIAAAAAAAAAAIgEWAAAAAAAAAAAAJEACwAAAAAAAAAAIBJgAQAAAAAAAAAARAIsAAAAAAAAAACASIAFAAAAAAAAAAAQCbAAAAAAAAAAAAAiARYAAAAAAAAAAEAkwAIAAAAAAAAAAIgEWAAAAAAAAAAAAJEACwAAAAAAAAAAIBJgAQAAAAAAAAAARAIsAAAAAAAAAACASIAFAAAAAAAAAAAQCbAAAAAAAAAAAAAiARYAAAAAAAAAAEAkwAIAAAAAAAAAAIgEWAAAAAAAAAAAAJEACwAAAAAAAAAAIBJgAQAAAAAAAAAARAIsAAAAAAAAAACASIAFAAAAAAAAAAAQCbAAAAAAAAAAAAAiARYAAAAAAAAAAEAkwAIAAAAAAAAAAIgEWAAAAAAAAAAAAJEACwAAAAAAAAAAIBJgAQAAAAAAAAAARAIsAAAAAAAAAACASIAFAAAAAAAAAAAQCbAAAAAAAAAAAAAiARYAAAAAAAAAAEAkwAIAAAAAAAAAAIgEWAAAAAAAAAAAAJEACwAAAAAAAAAAIBJgAQAAAAAAAAAARAIsAAAAAAAAAACASIAFAAAAAAAAAAAQCbAAAAAAAAAAAAAiARYAAAAAAAAAAEAkwAIAAAAAAAAAAIgEWAAAAAAAAAAAAJEACwAAAAAAAAAAIBJgAQAAAAAAAAAARAIsAAAAAAAAAACASIAFAAAAAAAAAAAQCbAAAAAAAAAAAAAiARYAAAAAAAAAAEAkwAIAAAAAAAAAAIgEWAAAAAAAAAAAAJEACwAAAAAAAAAAIBJgAQAAAAAAAAAARAIsAAAAAAAAAACASIAFAAAAAAAAAAAQCbAAAAAAAAAAAAAiARYAAAAAAAAAAEAkwAIAAAAAAAAAAIgEWAAAAAAAAAAAAJEACwAAAAAAAAAAIBJgAQAAAAAAAAAARAIsAAAAAAAAAACASIAFAAAAAAAAAAAQCbAAAAAAAAAAAAAiARYAAAAAAAAAAEAkwAIAAAAAAAAAAIgEWAAAAAAAAAAAAJEACwAAAAAAAAAAIBJgAQAAAAAAAAAARAIsAAAAAAAAAACASIAFAAAAAAAAAAAQCbAAAAAAAAAAAAAiARYAAAAAAAAAAEAkwAIAAAAAAAAAAIgEWAAAAAAAAAAAAJEACwAAAAAAAAAAIBJgAQAAAAAAAAAARAIsAAAAAAAAAACASIAFAAAAAAAAAAAQCbAAAAAAAAAAAAAiARYAAAAAAAAAAEAkwAIAAAAAAAAAAIgEWAAAAAAAAAAAAJEACwAAAAAAAAAAIBJgAQAAAAAAAAAARAIsAAAAAAAAAACASIAFAAAAAAAAAAAQCbAAAAAAAAAAAAAiARYAAAAAAAAAAEAkwAIAAAAAAAAAAIgEWAAAAAAAAAAAAJEACwAAAAAAAAAAIBJgAQAAAAAAAAAARAIsAAAAAAAAAACASIAFAAAAAAAAAAAQCbAAAAAAAAAAAAAiARYAAAAAAAAAAEAkwAIAAAAAAAAAAIgEWAAAAAAAAAAAAJEACwAAAAAAAAAAIBJgAQAAAAAAAAAARAIsAAAAAAAAAACASIAFAAAAAAAAAAAQCbAAAAAAAAAAAAAiARYAAAAAAAAAAEAkwAIAAAAAAAAAAIgEWAAAAAAAAAAAAJEACwAAAAAAAAAAIBJgAQAAAAAAAAAARAIsAAAAAAAAAACASIAFAAAAAAAAAAAQCbAAAAAAAAAAAAAiARYAAAAAAAAAAEAkwAIAAAAAAAAAAIgEWAAAAAAAAAAAAJEACwAAAAAAAAAAIBJgAQAAAAAAAAAARAIsAAAAAAAAAACASIAFAAAAAAAAAAAQCbAAAAAAAAAAAAAiARYAAAAAAAAAAEAkwAIAAAAAAAAAAIgEWAAAAAAAAAAAAJEACwAAAAAAAAAAIBJgAQAAAAAAAAAARFeXHgAAAAAAAPyn3G/7aae93LGX2/k+7ecdu9/DXu/Yq23bsVd72OuLrgX+6d0de3R+f7hj7+9hH+/YZ9s+3WnXO3a97Xrb4/MNAMC/EGABAAAAAAB/9bDtxbbn2+7O77uddrc/dnd8v/tLjgPerNPX+2hXu9mxm532ZNuTbTfbnm77fNs7l9wHAPA2EGABAAAAAMD/1y/bfth2u2O3O+3HXe358e1+u/Qw4O1wfLdft92ez9+cvtkH+31fbPty27Ntz3baV9s+ebMrAQAuS4AFAAAA/MnencZcetZ1HP9dz4wUgoaIBFIaEzTyQkEDFoMJDSlLKUGqRgQXQIitwxa1aggQBJ8mEIOJUNKkzHOeZ8YWCASq0CDdkrKWHbqxFUqhBbFTSmmbtjB0lnP7giqytEyvmfv8z/L5JOf9793/xf3NdQCA1bEnyUcy5KNpuTTJJ9sk+6tHAYupvSF7k3zmrt//GV6UX800x2XI45Icl+TXk7SCiQAAM9GGHbksyaOrhwAAAAAAAEfcniQXpuWi7M8lbXeurx4ErJ7hlDwkLcdlLSdmyFOT/HL1JgCAI+hyARYAAAAAACyPg2m5IkPem2n+M1u5rCVD9SiA/++uF7KenOSkDDkhyVHVmwAADoMACwAAAAAAFtz+JBdnyDuzP+e2s3Jr9SCAQzX8ZX4h23NSkj9JcmLEWADA4hFgAQAAAADAAjqYIZ9Ick625e1tZ26sHgRwuIYdeUBa/iDJMzPkKUnuU70JAOAQCLAAAAAAAGCBXJ0hm9mWN4uugGU2nJwHZi3PTcspSR5ZvQcA4B4IsAAAAAAAYM7dmeQ9GTLJZt7XkqF6EMAsDafk2KxlR5I/T/Lz1XsAAH6MAAsAAAAAAObUdWk5IwdyVtuVm6vHAFQbduQBGfLstJya5OHVewAA7iLAAgAAAACAOXN5Wk7P0XlbW8+B6jEA82ZYz1r25Pcy5G+SPLl6DwCw8gRYAAAAAAAwB6ZpOT/TvLFt5uLqMQCLYtiR305yapI/S7K9eA4AsJoEWAAAAAAAUGhIy3mZ5lVtM1dUjwFYVMML87BM84okJyfZVr0HAFgpl69VLwAAAAAAgBV1cab5nbaRk8RXAIen7cx1bZIXZJrfTPKWJAerNwEAq0OABQAAAAAAs9RyUdby2DbJCW0rl1bPAVgmbStXtUn+Ii3HJnlP9R4AYDX4H2QAAAAAAJiNLyf5h7aR86qHACy7tpErk/zBsCOPTcvpGfK71ZsAgOXlBSwAAAAAABjXLWl5eW7Jb7WJ+Apgltokn8zReVxanpfkhuo9AMByasOOXJbk0dVDAAAAAABgyRxIsjv784/t3/Lt6jEAq254bu6f++WlSV6W5L7VewCApXG5AAsAAAAAAI68KzLNKW0rl1YPAeBHDSfn17ItkyRPqN4CACyFy/0FIQAAAAAAHDl77/q7wceIrwDmU9uVazLJk+76W8Kbq/cAAItPgAUAAAAAAEfGhzPkUW0jr2vn5GD1GADuXkuGtpE3J3lkkv+o3gMALDYBFgAAAAAAHJ7bM+TkTHJ828zV1WMAOHRtkj1tkj9Oy5/Ga1gAQCcBFgAAAAAA9BryqbQc2zazuyVD9RwA+rSNvCPb84gkF1ZvAQAWjwALAAAAAADuvYMZ8rq0HNc28pXqMQAcvnZmbsgkT8uQU5Psq94DACwOARYAAAAAANw7X880T2ibeXmbZH/1GACOnJYMbTNvzFqOTfK56j0AwGIQYAEAAAAAwKE7L/vyqLaVS6qHADCetjOfz/3z2CRnV28BAOafAAsAAAAAAH62IUNel4fm99tZubV6DADja2/I3jbJ89PygsSLhwDA3RNgAQAAAADAPbs5LU9rm3l5W8+0egwAs9U2Msk0T0pyQ/UWAGA+CbAAAAAAAODuXZFpHtM2cmH1EADqtK1ckrU8Ji2fqN4CAMwfARYAAAAAAPw0LRflQB7ftnJt9RQA6rWd+e/cJ8cneVv1FgBgvgiwAAAAAADgx7Vs5ug8ve3O7dVTAJgf7YzcmUmek+S06i0AwPwQYAEAAAAAwA8NSU5rG9nR1nOgegwA86clQ5tkPUNOTrK/eg8AUE+ABQAAAAAAP/C9DHlGm2S9eggA869tZneGnJTktuotAEAtARYAAAAAACR3ZJqT2mbeXT0EgMXRNnNRkickual6CwBQR4AFAAAAAMCquzXTnNC28v7qIQAsnjbJZZnm8Umur94CANQQYAEAAAAAsMpuTMvxbSufqB4CwOJqW7kq0xyX5NrqLQDA7AmwAAAAAABYVXsy5IltI1dWDwFg8bWtXJvk+CRfKZ4CAMyYAAsAAAAAgFX0zWzLcW0zX6geAsDyaJN8IwdyfJJrqrcAALMjwAIAAAAAYNV8Oy0ntjfla9VDAFg+bXeuz/Y8Mcl11VsAgNkQYAEAAAAAsEpuTfLUtpEvVg8BYHm1M/NfOZgTkuyp3gIAjE+ABQAAAADAqrgtazmxTXJZ9RAAll/blWuylqck+U71FgBgXAIsAAAAAABWwd5M8/S2M5+qHgLA6mg78/m0PDXJbdVbAIDxCLAAAAAAAFh207Q8p23lkuohAKyetpHPJPnDJPuqtwAA4xBgAQAAAACw3Fpe2jbyruoZAKyuNskH0vLi6h0AwDgEWAAAAAAALK+WzbaR11fPAIC2kV1p+efqHQDAkSfAAgAAAABgWV2Qo702AsAc2cgrk7y1egYAcGQJsAAAAAAAWEZXZnue1dZzoHoIAPyvlgw5Kqck+Xj1FgDgyBFgAQAAAACwbG5J8ox2Zu6oHgIAP66dkTuzPX+U5PrqLQDAkSHAAgAAAABgmUzT8pw2yVerhwDA3Wln5oYMeWaSfdVbAIDDJ8ACAAAAAGCZrLeNnF89AgB+lraZjyV5WfUOAODwCbAAAAAAAFgOLe/NQ/Pa6hkAcKjaJKcnObt6BwBweARYAAAAAAAsg+tyZ57b1jOtHgIA98revCTJVdUzAIB+AiwAAAAAABbdNEOe387KrdVDAODeam/Jd7OWZyX5fvUWAKCPAAsAAAAAgMXW8pq2mQ9VzwCAXm1nPp8hr6reAQD0EWABAAAAALDIPpMhr6keAQCH7Zi8PsnF1TMAgHtPgAUAAAAAwKL6boY8u02yv3oIAByutp5pDuR5Sb5TvQUAuHcEWAAAAAAALKpT22aurh4BAEdK253r0/LC6h0AwL0jwAIAAAAAYPEM+WAm2VU9AwCOtLaRf0/Lu6t3AACHToAFAAAAAMCi2Ztp/qolQ/UQABjFkJckuaV6BgBwaARYAAAAAAAsliGvbrtyTfUMABhLm2RPkldU7wAADo0ACwAAAACARXJlWt5YPQIARjfJJC3vr54BAPxsAiwAAAAAABbFgQx5fptkf/UQABhbS4ZM86Ikd1ZvAQDumQALAAAAAIBFsdE2c0X1CACYlbaZq5O8oXoHAHDPBFgAAAAAACyCW5KsV48AgJnbntcm2VM9AwC4ewIsAAAAAAAWwXqb5KbqEQAwa+3M3JGWV1bvAADungALAAAAAIB596Ukb6oeAQBljs7ZST5dPQMA+OkEWAAAAAAAzLchf98m2V89AwCqtPVM0/K3SYbqLQDATxJgAQAAAAAwz97XNnNB9QgAqNY28vEk767eAQD8JAEWAAAAAADza5rTqicAwNwY8uok0+oZAMCPEmABAAAAADCfhpzftnJJ9QwAmBdtM19Ick71DgDgRwmwAAAAAACYT9u8fgUAP+EHr2AdqJ4BAPyQAAsAAAAAgHl0btuZT1WPAIB50zZzdZK3V+8AAH5IgAUAAAAAwLwZMs0/VY8AgDl2WryCBQBzQ4AFAAAAAMC8Ob9t5bPVIwBgXrVJvpoh51TvAAB+QIAFAAAAAMC8+dfqAQAw9wb3EgDmhQALAAAAAIB5cmUm+WD1CACYd20rl2ZwMwFgHgiwAAAAAACYJ//SkqF6BAAsCK9gAcAcEGABAAAAADAvvpnknOoRALAwNnNeki9WzwCAVSfAAgAAAABgXpzRJtlfPQIAFkVLhgw5vXoHAKw6ARYAAAAAAPNgX9ZyVvUIAFg4P5e3J7mtegYArDIBFgAAAAAA9VrObTtzY/UMAFg07czckZZ3VO8AgFUmwAIAAAAAoN40m9UTAGBhuaMAUEqABQAAAABAtWtzTN5fPQIAFlXbzKeTXF69AwBWlQALAAAAAIBaQzbbeqbVMwBgwe2uHgAAq0qABQAAAABApWkO5uzqEQCw8PblrUnurJ4BAKtIgAUAAAAAQKUPtd25vnoEACy6dlZuTXJR9Q4AWEUCLAAAAAAA6rS8s3oCACyNwV0FgAoCLAAAAAAAqhxMy7uqRwDA0jiY9yTZWz0DAFaNAAsAAAAAgCofaDtzY/UIAFgWbXduT3JB9Q4AWDUCLAAAAAAAqryjegAALB1/7wsAMyfAAgAAAACgwsEk51aPAICl8728N8n3q2cAwCoRYAEAAAAAMHstn26T3FQ9AwCWTXtLvpvkw9U7AGCVCLAAAAAAAJi9aS6ongAAS+zC6gEAsEoEWAAAAAAAVBBgAcB43FkAmCEBFgAAAAAAs3ZTjsml1SMAYFm1Sb6U5GvVOwBgVQiwAAAAAACYrZaL2nqm1TMAYMldVD0AAFaFAAsAAAAAgNma+iAMAKNr7i0AzIoACwAAAACA2Zrmw9UTAGDpHcgliRcnAWAWBFgAAAAAAMzS9W1Xvl49AgCWXduVm5N8uXoHAKwCARYAAAAAALPT8pHqCQCwQj5aPQAAVoEACwAAAACA2ZnmY9UTAGBlDAIsAJgFARYAAAAAALOz5kMwAMyMuwsAMyHAAgAAAABgVr6XIVdWjwCAlbGRa5LcWD0DAJadAAsAAAAAgNlo+WybZH/1DABYFS0ZklxWvQMAlp0ACwAAAACA2Rjy2eoJALCC3F8AGJkACwAAAACAWflc9QAAWDnN/QWAsQmwAAAAAACYjeYFDgAoIMACgJEJsAAAAAAAmI01H4ABYOZuzlVJ9lXPAIBlJsACAAAAAGAWvtHelFuqRwDAqmnnZF+Sq6t3AMAyE2ABAAAAADALX6oeAAAr7KrqAQCwzARYAAAAAACMb8jXqicAwAq7tnoAACwzARYAAAAAAONr+Xr1BABYYddVDwCAZSbAAgAAAABgfM3LGwBQxh0GgFEJsAAAAAAAGN/g5Q0AKOMOA8CoBFgAAAAAAIxv6sMvAJTZl+uSDNUzAGBZCbAAAAAAABjb3mzlxuoRALCq2ln5fpIbqncAwLISYAEAAAAAMLZvNa9uAEC1b1UPAIBlJcACAAAAAGBsN1UPAADcYwAYiwALAAAAAIBxtXynegIA4B4DwFgEWAAAAAAAjM2LGwBQzz0GgJEIsAAAAAAAGNfgxQ0AKOdFSgAYjQALAAAAAIBxCbAAoJ57DACjEWABAAAAADCullurJwDAyhtyS/UEAFhWAiwAAAAAAMZ2Z/UAAMA9BoCxCLAAAAAAABhXy77qCQCw8txjABiNAAsAAAAAgHENXtwAgHLuMQCMRoAFAAAAAMC4vLgBAPXW3GMAGIsACwAAAACAcU198AWAcl7AAoDRCLAAAAAAABibD74AUE2ABQCjEWABAAAAADCutUyrJwDAyms5WD0BAJaVAAsAAAAAAAAAAKCTAAsAAAAAAAAAAKCTAAsAAAAAAAAAAKCTAAsAAAAAAAAAAKCTAAsAAAAAAAAAAKCTAAsAAAAAAAAAAKCTAAsAAAAAAAAAAKCTAAsAAAAAAAAAAKCTAAsAAAAAAAAAAKCTAAsAAAAAAAAAAKCTAAsAAAAAAAAAAKCTAAsAAAAAAAAAAKCTAAsAAAAAAAAAAKCTAAsAAAAAAAAAAKCTAAsAAAAAAAAAAKCTAAsAAAAAAAAAAKCTAAsAAAAAAAAAAKCTAAsAAAAAAAAAAKCTAAsAAAAAAAAAAKCTAAsAAAAAAAAAAKCTAAsAAAAAAAAAAKCTAAsAAAAAAAAAAKCTAAsAAAAAAAAAAKCTAAsAAAAAAAAAAKCTAAsAAAAAAAAAAKCTAAsAAAAAAAAAAKCTAAsAAAAAAAAAAKCTAAsAAAAAAAAAAKCTAAsAAAAAAAAAAKCTAAsAAAAAAAAAAKCTAAsAAAAAAAAAAKCTAAsAAAAAAAAAAKCTAAsAAAAAAAAAAKCTAAsAAAAAAAAAAKCTAAsAAAAAAAAAAKCTAAsAAAAAAAAAAKCTAAsAAAAAAAAAAKCTAAsAAAAAAAAAAKCTAAsAAAAAAAAAAKCTAAsAAAAAAAAAAKCTAAsAAAAAAAAAAKCTAAsAAAAAAAAAAKCTAAsAAAAAAAAAAKCTAAsAAAAAAAAAAKCTAAsAAAAAAAAAAKCTAAsAAAAAAAAAAKCTAAsAAAAAAAAAAKCTAAsAAAAAAAAAAKCTAAsAAAAAAAAAAKCTAAsAAAAAAAAAAKCTAAsAAAAAAAAAAKCTAAsAAAAAAAAAAKCTAAsAAAAAAAAAAKCTAAsAAAAAAAAAAKCTAAsAAAAAAAAAAKCTAAsAAAAAAAAAAKCTAAsAAAAAAAAAAKCTAAsAAAAAAAAAAKCTAAsAAAAAAAAAAKCTAAsAAAAAAAAAAKCTAAsAAAAAAAAAAKCTAAsAAAAAAAAAAKCTAAsAAAAAAAAAAKCTAAsAAAAAAAAAAKCTAAsAAAAAAAAAAKCTAAsAAAAAAAAAAKCTAAsAAAAAAAAAAKCTAAsAAAAAAAAAAKCTAAsAAAAAAAAAAKCTAAsAAAAAAAAAAKCTAAsAAAAAAAAAAKCTAAsAAAAAAAAAAKCTAAsAAAAAAAAAAKCTAAsAAAAAAAAAAKCTAAsAAAAAAAAAAKCTAAsAAAAAAAAAAKCTAAsAAAAAAAAAAKCTAAsAAAAAAAAAAKCTAAsAAAAAAAAAAKCTAAsAAAAAAAAAAKCTAAsAAAAAAAAAAKCTAAsAAAAAAAAAAKCTAAsAAAAAAAAAAKCTAAsAAAAAAAAAAKCTAAsAAAAAAAAAAKCTAAsAAAAAAAAAAKCTgV8ARQAAIABJREFUAAsAAAAAAAAAAKCTAAsAAAAAAAAAAKCTAAsAAAAAAAAAAKCTAAsAAAAAAAAAAKCTAAsAAAAAAAAAAKCTAAsAAAAAAAAAAKCTAAsAAAAAAAAAAKCTAAsAAAAAAAAAAKCTAAsAAAAAAAAAAKCTAAsAAAAAAAAAAKCTAAsAAAAAAAAAAKCTAAsAAAAAAAAAAKCTAAsAAAAAAAAAAKCTAAsAAAAAAAAAAKCTAAsAAAAAAAAAAKCTAAsAAAAAAAAAAKCTAAsAAAAAAAAAAKCTAAsAAAAAAAAAAKCTAAsAAAAAAAAAAKCTAAsAAAAAAAAAAKCTAAsAAAAAAAAAAKCTAAsAAAAAAAAAAKCTAAsAAAAAAAAAAKCTAAsAAAAAAAAAAKCTAAsAAAAAAAAAAKCTAAsAAAAAAAAAAKCTAAsAAAAAAAAAAKCTAAsAAAAAAAAAAKCTAAsAAAAAAAAAAKCTAAsAAAAAAAAAAKCTAAsAAAAAAAAAAKCTAAsAAAAAAAAAAKCTAAsAAAAAAAAAAKCTAAsAAAAAAAAAAKCTAAsAAAAAAAAAAKCTAAsAAAAAAAAAAKCTAAsAAAAAAAAAAKCTAAsAAAAAAAAAAKCTAAsAAAAAAAAAAKCTAAsAAAAAAAAAAKCTAAsAAAAAAAAAAKCTAAsAAAAAAAAAAKCTAAsAAAAAAAAAAKCTAAsAAAAAAAAAAKCTAAsAAAAAAAAAAKCTAAsAAAAAAAAAAKCTAAsAAAAAAAAAAKCTAAsAAAAAAAAAAKCTAAsAAAAAAAAAAKCTAAsAAAAAAAAAAKCTAAsAAAAAAAAAAKCTAAsAAAAAAAAAAKCTAAsAAAAAAAAAAKCTAAsAAAAAAAAAAKCTAAsAAAAAAAAAAKCTAAsAAAAAAAAAAKCTAAsAAAAAAAAAAKCTAAsAAAAAAAAAAKCTAAsAAAAAAAAAAKCTAAsAAAAAAAAAAKCTAAsAAAAAAAAAAKCTAAsAAAAAAAAAAKCTAAsAAAAAAAAAAKCTAAsAAAAAAAAAAKCTAAsAAAAAAAAAAKCTAAsAAAAAAAAAAKCTAAsAAAAAAAAAAKCTAAsAAAAAAAAAAKCTAAsAAAAAAAAAAKCTAAsAAAAAAAAAAKCTAAsAAAAAAAAAAKCTAAsAAAAAAAAAAKCTAAsAAAAAAAAAAKCTAAsAAAAAAAAAAKCTAAsAAAAAAAAAAKCTAAsAAAAAAAAAAKCTAAsAAAAAAAAAAKCTAAsAAAAAAAAAAKCTAAsAAAAAAAAAAKCTAAsAAAAAAAAAAKCTAAsAAAAAAAAAAKCTAAsAAAAAAAAAAKCTAAsAAAAAAAAAAKCTAAsAAAAAAAAAAKCTAAsAAAAAAAAAAKCTAAsAAAAAAAAAAKCTAAsAAAAAAAAAAKCTAAsAAAAAAAAAAKCTAAsAAAAAAAAAAKCTAAsAAAAAAAAAAKCTAAsAAAAAAAAAAKCTAAsAAAAAAAAAAKCTAAsAAAAAAAAAAKCTAAsAAAAAAAAAAKCTAAsAAAAAAAAAAKCTAAsAAAAAAAAAAKCTAAsAAAAAAAAAAKCTAAsAAAAAAAAAAKCTAAsAAAAAAAAAAKCTAAsAAAAAAAAAAKCTAAsAAAAAAAAAAKCTAAsAAAAAAAAAAKCTAAsAAAAAAAAAAKCTAAsAAAAAAAAAAKCTAAsAAAAAAAAAAKCTAAsAAAAAAAAAAKCTAAsAAAAAAAAAAKCTAAsAAAAAAAAAAKCTAAsAAAAAAAAAAKCTAAsAAAAAAAAAAKCTAAsAAAAAAAAAAKCTAAsAAAAAAAAAAKCTAAsAAAAAAAAAAKCTAAsAAAAAAAAAAKCTAAsAAAAAAAAAAKCTAAsAAAAAAAAAAKCTAAsAAAAAAAAAAKCTAAsAAAAAAAAAAKCTAAsAAAAAAAAAAKCTAAsAAAAAAAAAAKCTAAsAAAAAAAAAAKCTAAsAAAAAAAAAAKCTAAsAAAAAAAAAAKCTAAsAAAAAAAAAAKCTAAsAAAAAAAAAAKCTAAsAAAAAAAAAAKCTAAsAAAAAAAAAAKCTAAsAAAAAAAAAAKCTAAsAAAAAAAAAAKCTAAsAAAAAAAAAAKCTAAsAAAAAAAAAAKCTAAsAAAAAAAAAAKCTAAsAAAAAAAAAAKCTAAsAAAAAAAAAAKCTAAsAAAAAAAAAAKCTAAsAAAAAAAAAAKCTAAsAAAAAAAAAAKCTAAsAAAAAAAAAAKCTAAsAAAAAgLFtqx4AACtvLdurJwDAshJgAQAAAAAwrmnuUz0BAFaeewwAoxFgAQAAAAAwrjUffAGgXMtR1RMAYFkJsAAAAAAAGNfUB18AKOcFLAAYjQALAAAAAIBxeQELAOp5AQsARiPAAgAAAABgXIMACwDKCbAAYDQCLAAAAAAAxuaDLwBU8xeEADAaARYAAAAAAGP7xeoBAEAeWD0AAJaVAAsAAAAAgHEN+aXqCQCw8pp7DABjEWABAAAAADC2B1UPAADcYwAYiwALAAAAAICx+eALAPXcYwAYiQALAAAAAIBx+csjAKjnHgPAaARYAAAAAACMzYsbAFBtcI8BYCwCLAAAAAAAxvbgIWnVIwBgxT24egAALCsBFgAAAAAAY7tvXpyHVI8AgFU1/F3ul7jFADAWARYAAAAAAOPbl4dVTwCAlXV7HhavUQLAaARYAAAAAACMb1t+pXoCAKwsdxgARiXAAgAAAABgfFMvYAFAGXcYAEYlwAIAAAAAYHzNh18AKLPmBSwAGJMACwAAAACA8Q0+/AJAGS9gAcCoBFgAAAAAAIyv5TeqJwDAymp5RPUEAFhmAiwAAAAAAGbhmGFHHlQ9AgBWzfDXOSrJw6t3AMAyE2AB/A97dxdjeV3fcfzzP/vAg6AsbrsRy3MTUR4UKmphVQooWKJi7dRedOuKM2cW7cqFSUlDG6bohRem1lYbxYrFeGExVittqNVCLNS0StSgMaleaNO627TShytFZH+92EXLKrD73Z3zOw+vV3KSmcmZ5HM1/5n5v/P7AwAAADAp5/ceAAAL56Gcm2Rj7xkAMM8EWAAAAAAATEbLBb0nAMACEkADwDoTYAEAAAAAMCluAAPA5Ln+AsA6E2ABAAAAADApbgADwKQ5gRIA1p0ACwAAAACAyRhyflvK5t4zAGBRtGTIkOf13gEA806ABQAAAADApByXLbmw9wgAWBjjPCvJz/SeAQDzToAFAAAAAMDkDLm09wQAWBiuuwAwEQIsAAAAAAAmp7kRDAAT47oLABMhwAIAAAAAYJLcCAaAydneewAALAIBFgAAAAAAk7StjXN27xEAMO/aOFuT/HzvHQCwCARYAAAAAABMVsuLe08AgLk35CVJht4zAGARCLAAAAAAAJisIVf1ngAAC+Dq3gMAYFEIsAAAAAAAmLSr2lI29B4BAHOtCZ4BYFIEWAAAAAAATNqWnJwX9B4BAPOqreTcJKf13gEAi0KABQAAAABADx6LBADr5xW9BwDAIhFgAQAAAAAwec2NYQBYN4PQGQAmSYAFAAAAAEAPv9CWs633CACYN+26nJhke+8dALBIBFgAAAAAAPQwyii/0nsEAMydDXlVkmN6zwCARSLAAgAAAACgj5Zf6z0BAObOkNf1ngAAi0aABQAAAABAH0Ne0q7LKb1nAMC8aDtzUpKX994BAItGgAUAAAAAQC+jbMpre48AgLmxKdfG4wcBYOIEWAAAAAAA9OMxhABw9AyuqwDQgwALAAAAAICeLmlvyqm9RwDArGtvztOTXNl7BwAsIgEWAAAAAAA9jfJw3tB7BADMvIezI8mm3jMAYBEJsAAAAAAA6GvIclvKht4zAGDGLfceAACLSoAFAAAAAEBvp+bkvKz3CACYVW0llyQ5t/cOAFhUAiwAAAAAAPprWek9AQBm1uD0KwDoSYAFAAAAAMA0eFW7Lqf0HgEAs6ZdlxOTLPXeAQCLTIAFAAAAAMA02JiN2dl7BADMnA3ZkeSE3jMAYJEJsAAAAAAAmBZvaTtzbO8RADAr2lpGGbK79w4AWHQCLAAAAAAApsW2bMqv9x4BADNjb65Nck7vGQCw6ARYAAAAAABMjyFvbcnQewYAzISWt/aeAAAIsAAAAAAAmC7nZTVX9R4BANOu7coLklzSewcAIMACAAAAAGDaOM0DAJ7cvtzYewIAsJ8ACwAAAACAaXNlW83ze48AgGnVxjknyat77wAA9hNgAQAAAAAwffbl93tPAIAptpZkQ+8RAMB+AiwAAAAAAKbPkF9uy3lx7xkAMG3aSs5NstR7BwDwYwIsAAAAAACm0yg3954AAFNnlLfFfV4AmCouzAAAAAAATKsr2q5c1nsEAEyLNs5Fabm29w4A4LEEWAAAAAAATK+WW3pPAIApckuSofcIAOCxBFgAAAAAAEyvlhe3lbym9wwA6K0t5/Ik1/TeAQD8JAEWAAAAAADTbcg7284c23sGAPTSlrIho7yr9w4A4KcTYAEAAAAAMO3OyjG5ofcIAOhmS8ZJLug9AwD46QRYAAAAAABMv5ab2jjP6D0DACatXZ8tSW7pvQMAeHwCLAAAAAAAZsGJSd7eewQATNy+3Jxka+8ZAMDjE2ABAAAAADArdrZxXth7BABMStuV89Lypt47AIAnJsACAAAAAGBWjJL8aVvK5t5DAGC9tbWMsi/vT7Kp9xYA4IkJsAAAAAAAmCXnZUtu7D0CANbdd7I7ySW9ZwAAT06ABQAAAADArLmpreY5vUcAwHpp45yWIW/rvQMAODQCLAAAAAAAZs0xST7Y1vyPG4C59Z4kJ/YeAQAcGn+cAgAAAAAwe1pelD25vvcMADja2mp+I8kre+8AAA6dAAsAAAAAgFn1zjbO+b1HAMDR0t6UU9PyR713AACHR4AFAAAAAMCsOjbJ7W0pm3sPAYAj1dYyysP5cJItvbcAAIdHgAUAAAAAwCy7MFvy9t4jAOCI7clNGXJZ7xkAwOETYAEAAAAAMOve2lZzRe8RAFDVVvP8JL/XewcAUCPAAgAAAABg1o3ScnsbZ2vvIQBwuNruPDUtH02yqfcWAKBGgAUAAAAAwDx4Zob8eVvLxt5DAOBQtWTIQ7ktydm9twAAdQIsAAAAAADmQ8vl+U7e3nsGAByycX4nyWt7zwAAjowACwAAAACA+THkt9s4S71nAMCTaau5IsktvXcAAEdOgAUAAAAAwDwZktzWVnJu7yEA8HjaOKel5aNJNvTeAgAcOQEWAAAAAADz5oQM+Vgb52m9hwDAwdo4xyf5RJKtvbcAAEeHAAsAAAAAgHn07LR8si1lc+8hAPCotpZRhnwkyUW9twAAR48ACwAAAACA+TTksmzJ+3rPAIAf2Zs/SMtres8AAI4uARYAAAAAAPPsDW01v9t7BAC0cVbTckPvHQDA0SfAAgAAAABgvrXc0layo/cMABZXG+eaJO/tvQMAWB8CLAAAAAAA5t2QIR9oq3lZ7yEALJ62K5cmuSPJht5bAID1IcACAAAAAGARHJOWT7aVvLT3EAAWR1vNc7MvdyY5vvcWAGD9CLAAAAAAAFgUx2fIp9pKLu49BID5167Ps9Ly6SRbem8BANaXAAsAAAAAgEXy1Az527YrF/YeAsD8auOcnUdyd5JtvbcAAOtPgAUAAAAAwKI5KftyV7s+z+o9BID508Y5LcnfJTml9xYAYDIEWAAAAAAALKJteSSfa6t5bu8hAMyPtpwzk9yT5PTeWwCAyRFgAQAAAACwqLal5Z62nBf1HgLA7GvLeXZGuTfJWb23AACTJcACAAAAAGCRbckon2nLubz3EABmVxvnoozy90me2XsLADB5AiwAAAAAABbdCRnlzraSq3oPAWD2tHG2J7k7ydbeWwCAPgRYAAAAAACQHJ8hn2or2dF7CACzo41zbZJPJ3la7y0AQD8CLAAAAAAA2G9zhtzexllrydB7DADTra3khiQfT3J87y0AQF8bew8AAAAAAIApMiS5Oas5vf1XVoeP5Qe9BwEwXdpSNuSkvCtDdvfeAgBMBydgAQAAAADAwVp25uTc1XbmpN5TAJgebUeeki35C/EVAPD/CbAAAAAAAOCnabk8m/P5Ns45vacA0F9bzpk5LvcleVXvLQDAdBFgAQAAAADA43t2ki+21fxq7yEA9NNW8oqMcn+S5/XeAgBMHwEWAAAAAAA8sRPSckcb591tLRt7jwFgcloytNXcmCF/leTk3nsAgOkkwAIAAAAAgCc3JHlL9uSuNs7W3mMAWH9tZ07KOH+ZlnfEfVUA4An4RQEAAAAAAA7dlUm+1lbyit5DAFg/bZwXZnPuT/LK3lsAgOknwAIAAAAAgMOzLUP+uo3z7rY7x/QeA8DR09aysa3mxiT3Jjm79x4AYDYIsAAAAAAA4PDtfyThQ7m/LeeC3mMAOHLtjTk9e3LPgUcObuq9BwCYHQIsAAAAAACoOy+j/GMb57famv+5A8yilgxtNW/IhjyQZHvvPQDA7PHHIAAAAAAAHJnjkvxx9uTetprn9B4DwKFryzkz4/xNWm5L8tTeewCA2STAAgAAAACAo+OStHylreQdbXeO6T0GgMfX1rKxreSGjPJAkpf33gMAzDYBFgAAAAAAHD2bMuTGPJT723Je1HsMAD+p7cqF2ZN/ypA/THJC7z0AwOwTYAEAAAAAwNF3Xkb5fBvnw22cZ/QeA0DS3piT2zjvzr58IclFvfcAAPNDgAUAAAAAAOtjSLIjyTfbOGttZ47tPQhgEbVxNrXVjLMh/5zkLUk29t4EAMwXARYAAAAAAKyvpyS5OZvzjbaa3+w9BmCRtJVcmeRLaXl/kq299wAA80mABQAAAAAAk3FqWm5v49zbxvml3mMA5llbzS+2cT6bIZ9Jcl7vPQDAfBNgAQAAAADAZG1PcndbyX1CLICjqy3ngjbOHWn5fJIreu8BABaDAAsAAAAAAHoYcmmSu9s4d7WVXNx7DsAsa6t5blvJJzPKV5Is9d4DACwWARYAAAAAAPR1dYZ8oa3kvraaV7Zk6D0IYFa0cba31dyZli9nyKvjZygA0MHG3gMAAAAAAIDsPxGr5VMZ55ut5b05IbcO78r3es8CmDZtLaPszTVpuSnJC9N6LwIAFt3QxvlSkgt7DwEAAAAAAB5jb5L3JPnQcGv29h4D0FsbZ2uS1yfZneT0znMAAB71ZQEWAAAAAABMt0eS3JPk1pySTwxr+WHvQQCT0tYyyp5ckmTHgddxnScBABxMgAUAAAAAADPkX5PclkfyoeGD+ZfeYwDWS9uVZ2ZfXp/kjUnO6r0HAOAJCLAAAAAAAGBGfT1DPpwhHxnel+/0HgNwpNqb8/T8MNckWUrL1Uk29t4EAHAIBFgAAAAAADDj9iW5L8kd2ZiPD3+Sf+89COBQtXG2puU1GfK6JJcl2dB5EgDA4RJgAQAAAADAnPl6Wu5M8tkM+dxwax7uPQjgUW0to/xbLsyGXJmWK5O8NMmm3rsAAI6AAAsAAAAAAObYf2d/iPXp7Mu9wwfyjd6DgMXTrs9Z2Zft2ZerM+RlSbb23gQAcBQJsAAAAAAAYIH8b5IvJvmHtNyXh3Pf8Gf5fu9RwPxoS9mQk3JORrk0LduTvCTJ6b13AQCsIwEWAAAAAAAssO8l+VpaHkjy1bR8NaM8MNya7/YeBky/dn225Ie5IEPOT3J+hlyQlvOTPKX3NgCACfryxt4LAAAAAACAbo5LcnGGXJwkGfZ/sY2zN8nXk3wrybeTfCst386Qbw23Zm+XpUAXbTnbkpyZIWdkyBlJzkxyRpLn5JH83KM/N/a/ucNAAIApIMACAAAAAAAO9owDrx/7cZz1/ST/keTBJP+ZlgeTfDdDHkzyYIb8IPvSMuR/Dnzf97Mv35vcdOAJHJshxx34+GkZMkrLprQ8PcOBV7I1yda0bE3ys8mP3g8AwOMQYAEAAAAAAIfj2CSnHXjlMaffJPtPwDn4RJyD3wNMh0dPrBoO+hwAgMMy6j0AAAAAAAAAAABgVgmwAAAAAAAAAAAAigRYAAAAAAAAAAAARQIsAAAAAAAAAACAIgEWAAAAAAAAAABAkQALAAAAAAAAAACgSIAFAAAAAAAAAABQJMACAAAAAAAAAAAoEmABAAAAAAAAAAAUCbAAAAAAAAAAAACKBFgAAAAAAAAAAABFAiwAAAAAAAAAAIAiARYAAAAAAAAAAECRAAsAAAAAAAAAAKBIgAUAAAAAAAAAAFAkwAIAAAAAAAAAACgSYAEAAAAAAAAAABQJsAAAAAAAAAAAAIoEWAAAAAAAAAAAAEUCLAAAAAAAAAAAgCIBFgAAAAAAAAAAQJEACwAAAAAAAAAAoEiABQAAAAAAAAAAUCTAAgAAAAAAAAAAKBJgAQAAAAAAAAAAFAmwAAAAAAAAAAAAigRYAAAAAAAAAAAARQIsAAAAAAAAAACAIgEWAAAAAAAAAABAkQALAAAAAAAAAACgSIAFAAAAAAAAAABQJMACAAAAAAAAAAAoEmABAAAAAAAAAAAUCbAAAAAAAAAAAACKBFgAAAAAAAAAAABFAiwAAAAAAAAAAIAiARYAAAAAAAAAAECRAAsAAAAAAAAAAKBIgAUAAAAAAAAAAFAkwAIAAAAAAAAAACgSYAEAAAAAAAAAABQJsAAAAAAAAAAAAIoEWAAAAAAAAAAAAEUCLAAAAAAAAAAAgCIBFgAAAAAAAAAAQJEACwAAAAAAAAAAoEiABQAAAAAAAAAAUCTAAgAAAAAAAAAAKBJgAQAAAAAAAAAAFAmwAAAAAAAAAAAAigRYAAAAAAAAAAAARQIsAAAAAAAAAACAIgEWAAAAAAAAAABAkQALAAAAAAAAAACgSIAFAAAAAAAAAABQJMACAAAAAAAAAAAoEmABAAAAAAAAAAAUCbAAAAAAAAAAAACKBFgAAAAAAAAAAABFAiwAAAAAAAAAAIAiARYAAAAAAAAAAECRAAsAAAAAAAAAAKBIgAUAAAAAAAAAAFAkwAIAAAAAAAAAACgSYAEAAAAAAAAAABQJsAAAAAAAAAAAAIoEWAAAAAAAAAAAAEUCLAAAAAAAAAAAgCIBFgAAAAAAAAAAQJEACwAAAAAAAAAAoEiABQAAAAAAAAAAUCTAAgAAAAAAAAAAKBJgAQAAAAAAAAAAFAmwAAAAAAAAAAAAigRYAAAAAAAAAAAARQIsAAAAAAAAAACAIgEWAAAAAAAAAABAkQALAAAAAAAAAACgSIAFAAAAAAAAAABQJMACAAAAAAAAAAAoEmABAAAAAAAAAAAUCbAAAAAAAAAAAACKBFgAAAAAAAAAAABFAiwAAAAAAAAAAIAiARYAAAAAAAAAAECRAAsAAAAAAAAAAKBIgAUAAAAAAAAAAFAkwAIAAAAAAAAAACgSYAEAAAAAAAAAABQJsAAAAAAAAAAAAIoEWAAAAAAAAAAAAEUCLAAAAAAAAAAAgCIBFgAAAAAAAAAAQJEACwAAAAAAAAAAoEiABQAAAAAAAAAAUCTAAgAAAAAAAAAAKBJgAQAAAAAAAAAAFAmwAAAAAAAAAAAAigRYAAAAAAAAAAAARQIsAAAAAAAAAACAIgEWAAAAAAAAAABAkQALAAAAAAAAAACgSIAFAAAAAAAAAABQJMACAAAAAAAAAAAoEmABAAAAAAAAAAAUCbAAAAAAAAAAAACKBFgAAAAAAAAAAABFAiwAAAAAAAAAAIAiARYAAAAAAAAAAECRAAsAAAAAAAAAAKBIgAUAAAAAAAAAAFAkwAIAAAAAAAAAACgSYAEAAAAAAAAAABQJsAAAAAAAAAAAAIoEWAAAAAAAAAAAAEUCLAAAAAAAAAAAgCIBFgAAAAAAAAAAQJEACwAAAAAAAAAAoEiABQAAAAAAAAAAUCTAAgAAAAAAAAAAKBJgAQAAAAAAAAAAFAmwAAAAAAAAAAAAigRYAAAAAAAAAAAARQIsAAAAAAAAAACAIgEWAAAAAAAAAABAkQALAAAAAAAAAACgSIAFAAAAAAAAAABQJMACAAAAAAAAAAAoEmABAAAAAAAAAAAUCbAAAAAAAAAAAACKBFgAAAAAAAAAAABFAiwAAAAAAAAAAIAiARYAAAAAAAAAAECRAAsAAAAAAAAAAKBIgAUAAAAAAAAAAFAkwAIAAAAAAAAAACgSYAEAAAAAAAAAABQJsAAAAAAAAAAAAIoEWAAAAAAAAAAAAEUCLAAAAAAAAAAAgCIBFgAAAAAAAAAAQJEACwAAAAAAAAAAoEiABQAAAAAAAAAAUCTAAgAAAAAAAAAAKBJgAQAAAAAAAAAAFAmwAAAAAAAAAAAAigRYAAAAAAAAAAAARQIsAAAAAAAAAACAIgEWAAAAAAAAAABAkQALAAAAAAAAAACgSIAFAAAAAAAAAABQJMACAAAAAAAAAAAoEmABAAAAAAAAAAAUCbAAAAAAAAAAAACKBFgAAAAAAAAAAABFAiwAAAAAAAAAAIAiARYAAAAAAAAAAECRAAsAAAAAAAAAAKBIgAUAAAAAAAAAAFAkwAIAAAAAAAAAACgSYAEAAAAAAAAAABQJsAAAAAAAAAAAAIoEWAAAAAAAAAAAAEUCLAAAAAAAAAAAgCIBFgAAAAAAAAAAQJEACwAAAAAAAAAAoEiABQAAAAAAAAAAUCTAAgAAAAAAAAAAKBJgAQAAAAAAAAAAFAmwAAAAAAAAAAAAigRYAAAAAAAAAAAARQIsAAAAAAAAAACAIgEWAAAAAAAAAABAkQALAAAAAAAAAACgSIAFAAAAAAAAAABQJMACAAAAAAAAAAAoEmABAAAAAAAAAAAUCbAAAAAAAAAAAACKBFgAAAAAAAAAAABFAiwAAAAAAAAAAIAiARYAAAAAAAAAAECRAAsAAAAAAAAAAKBIgAUAAAAAAAAAAFAkwAIAAAAAAAAAACgSYAEAAAAAAAAAABQJsAAAAAAAAAAAAIoEWAAAAAAAAAAAAEUCLAAAAAAAAAAAgCLJWa+3AAAXKUlEQVQBFgAAAAAAAAAAQJEACwAAAAAAAAAAoEiABQAAAAAAAAAAUCTAAgAAAAAAAAAAKBJgAQAAAAAAAAAAFAmwAAAAAAAAAAAAigRYAAAAAAAAAAAARQIsAAAAAAAAAACAIgEWAAAAAAAAAABAkQALAAAAAAAAAACgSIAFAAAAAAAAAABQJMACAAAAAAAAAAAoEmABAAAAAAAAAAAUCbAAAAAAAAAAAACKBFgAAAAAAAAAAABFAiwAAAAAAAAAAIAiARYAAAAAAAAAAECRAAsAAAAAAAAAAKBIgAUAAAAAAAAAAFAkwAIAAAAAAAAAACgSYAEAAAAAAAAAABQJsAAAAAAAAAAAAIoEWAAAAAAAAAAAAEUCLAAAAAAAAAAAgCIBFgAAAAAAAAAAQJEACwAAAAAAAAAAoEiABQAAAAAAAAAAUCTAAgAAAAAAAAAAKBJgAQAAAAAAAAAAFAmwAAAAAAAAAAAAigRYAAAAAAAAAAAARQIsAAAAAAAAAACAIgEWAAAAAAAAAABAkQALAAAAAAAAAACgSIAFAAAAAAAAAABQJMACAAAAAAAAAAAoEmABAAAAAAAAAAAUCbAAAAAAAAAAAACKBFgAAAAAAAAAAABFAiwAAAAAAAAAAIAiARYAAAAAAAAAAECRAAsAAAAAAAAAAKBIgAUAAAAAAAAAAFAkwAIAAAAAAAAAACgSYAEAAAAAAAAAABQJsAAAAAAAAAAAAIoEWAAAAAAAAAAAAEUCLAAAAAAAAAAAgCIBFgAAAAAAAAAAQJEACwAAAAAAAAAAoEiABQAAAAAAAAAAUCTAAgAAAAAAAAAAKBJgAQAAAAAAAAAAFAmwAAAAAAAAAAAAigRYAAAAAAAAAAAARQIsAAAAAAAAAACAIgEWAAAAAAAAAABAkQALAAAAAAAAAACgSIAFAAAAAAAAAABQJMACAAAAAAAAAAAoEmABAAAAAAAAAAAUCbAAAAAAAAAAAACKBFgAAAAAAAAAAABFAiwAAAAAAAAAAIAiARYAAAAAAAAAAECRAAsAAAAAAAAAAKBIgAUAAAAAAAAAAFAkwAIAAAAAAAAAACgSYAEAAAAAAAAAABQJsAAAAAAAAAAAAIoEWAAAAAAAAAAAAEUCLAAAAAAAAAAAgCIBFgAAAAAAAAAAQJEACwAAAAAAAAAAoEiABQAAAAAAAAAAUCTAAgDg/9q7t1hLz4KOw793Q62JiiSgpop4uDImEA2JMaJGLmwhaoxREo2HCNTBQ8CYSMQDsR4SEhUJqdbOntE2oqlaYoyIAoVEE0HxgEIFGtG0oQJSeoJCtNN2f15Mtwxl2pn97sM3a/o8V7PX+g7/uf/lXQAAAAAAAMAkARYAAAAAAAAAAMAkARYAAAAAAAAAAMAkARYAAAAAAAAAAMAkARYAAAAAAAAAAMAkARYAAAAAAAAAAMAkARYAAAAAAAAAAMAkARYAAAAAAAAAAMAkARYAAAAAAAAAAMAkARYAAAAAAAAAAMAkARYAAAAAAAAAAMAkARYAAAAAAAAAAMAkARYAAAAAAAAAAMAkARYAAAAAAAAAAMAkARYAAAAAAAAAAMAkARYAAAAAAAAAAMAkARYAAAAAAAAAAMAkARYAAAAAAAAAAMAkARYAAAAAAAAAAMAkARYAAAAAAAAAAMAkARYAAAAAAAAAAMAkARYAAAAAAAAAAMAkARYAAAAAAAAAAMAkARYAAAAAAAAAAMAkARYAAAAAAAAAAMAkARYAAAAAAAAAAMAkARYAAAAAAAAAAMAkARYAAAAAAAAAAMAkARYAAAAAAAAAAMAkARYAAAAAAAAAAMAkARYAAAAAAAAAAMAkARYAAAAAAAAAAMAkARYAAAAAAAAAAMAkARYAAAAAAAAAAMAkARYAAAAAAAAAAMAkARYAAAAAAAAAAMAkARYAAAAAAAAAAMAkARYAAAAAAAAAAMAkARYAAAAAAAAAAMAkARYAAAAAAAAAAMAkARYAAAAAAAAAAMAkARYAAAAAAAAAAMAkARYAAAAAAAAAAMAkARYAAAAAAAAAAMAkARYAAAAAAAAAAMAkARYAAAAAAAAAAMAkARYAAAAAAAAAAMAkARYAAAAAAAAAAMAkARYAAAAAAAAAAMAkARYAAAAAAAAAAMAkARYAAAAAAAAAAMAkARYAAAAAAAAAAMAkARYAAAAAAAAAAMAkARYAAAAAAAAAAMAkARYAAAAAAAAAAMAkARYAAAAAAAAAAMAkARYAAAAAAAAAAMAkARYAAAAAAAAAAMAkARYAAAAAAAAAAMAkARYAAAAAAAAAAMAkARYAAAAAAAAAAMAkARYAAAAAAAAAAMAkARYAAAAAAAAAAMAkARYAAAAAAAAAAMAkARYAAAAAAAAAAMAkARYAAAAAAAAAAMAkARYAAAAAAAAAAMAkARYAAAAAAAAAAMAkARYAAAAAAAAAAMAkARYAAAAAAAAAAMAkARYAAAAAAAAAAMAkARYAAAAAAAAAAMAkARYAAAAAAAAAAMAkARYAAAAAAAAAAMAkARYAAAAAAAAAAMAkARYAAAAAAAAAAMAkARYAAAAAAAAAAMAkARYAAAAAAAAAAMAkARYAAAAAAAAAAMAkARYAAAAAAAAAAMAkARYAAAAAAAAAAMAkARYAAAAAAAAAAMAkARYAAAAAAAAAAMAkARYAAAAAAAAAAMAkARYAAAAAAAAAAMAkARYAAAAAAAAAAMAkARYAAAAAAAAAAMAkARYAAAAAAAAAAMAkARYAAAAAAAAAAMAkARYAAAAAAAAAAMAkARYAAAAAAAAAAMAkARYAAAAAAAAAAMAkARYAAAAAAAAAAMAkARYAAAAAAAAAAMAkARYAAAAAAAAAAMAkARYAAAAAAAAAAMAkARYAAAAAAAAAAMAkARYAAAAAAAAAAMAkARYAAAAAAAAAAMAkARYAAAAAAAAAAMAkARYAAAAAAAAAAMAkARYAAAAAAAAAAMAkARYAAAAAAAAAAMAkARYAAAAAAAAAAMAkARYAAAAAAAAAAMAkARYAAAAAAAAAAMAkARYAAAAAAAAAAMAkARYAAAAAAAAAAMAkARYAAAAAAAAAAMAkARYAAAAAAAAAAMAkARYAAAAAAAAAAMAkARYAAAAAAAAAAMAkARYAAAAAAAAAAMAkARYAAAAAAAAAAMAkARYAAAAAAAAAAMAkARYAAAAAAAAAAMAkARYAAAAAAAAAAMAkARYAAAAAAAAAAMAkARYAAAAAAAAAAMAkARYAAAAAAAAAAMAkARYAAAAAAAAAAMAkARYAAAAAAAAAAMAkARYAAAAAAAAAAMAkARYAAAAAAAAAAMAkARYAAAAAAAAAAMAkARYAAAAAAAAAAMAkARYAAAAAAAAAAMAkARYAAAAAAAAAAMAkARYAAAAAAAAAAMAkARYAAAAAAAAAAMAkARYAAAAAAAAAAMAkARYAAAAAAAAAAMAkARYAAAAAAAAAAMAkARYAAAAAAAAAAMAkARYAAAAAAAAAAMAkARYAAAAAAAAAAMAkARYAAAAAAAAAAMAkARYAAAAAAAAAAMAkARYAAAAAAAAAAMAkARYAAAAAAAAAAMAkARYAAAAAAAAAAMAkARYAAAAAAAAAAMAkARYAAAAAAAAAAMAkARYAAAAAAAAAAMAkARYAAAAAAAAAAMAkARYAAAAAAAAAAMAkARYAAAAAAAAAAMAkARYAAAAAAAAAAMAkARYAAAAAAAAAAMAkARYAAAAAAAAAAMAkARYAAAAAAAAAAMAkARYAAAAAAAAAAMAkARYAAAAAAAAAAMAkARYAAAAAAAAAAMAkARYAAAAAAAAAAMAkARYAAAAAAAAAAMCkreqhtUcAAAAAAAAAAABsoAe3Wrp/7RUAAAAAAAAAAAAb6P6tRqfWXgEAAAAAAAAAALCBBFgAAAAAAAAAAACTTvkJQgAAAAAAAAAAgDn3bzW6b+0VAAAAAAAAAAAAG2fp41vVnWvvAAAAAAAAAAAA2EB3brV019orAAAAAAAAAAAANs7oLgEWAAAAAAAAAADAnLv8BCEAAAAAAAAAAMCM5fRPEH547R0AAAAAAAAAAAAbZ6sPbVW3rr0DAAAAAAAAAABg4yzdttXT+lB1/9pbAAAAAAAAAAAANsj/tt1/b42r2qluX3sNAAAAAAAAAADABrlt1LJV1eJnCAEAAAAAAAAAAPbg1qqth/+4ZcUhAAAAAAAAAAAAm2XpffWpAOvmFacAAAAAAAAAAABsmptrN8AavXvVKQAAAAAAAAAAAJtkOTPA+p/+rdpZcw8AAAAAAAAAAMCGeKjP6731cIA1Xtsnq/9cdRIAAAAAAAAAAMBm+I/x6v6ndk/Aqhr9w2pzAAAAAAAAAAAANsXSO3b/+akAa6e3rzIGAAAAAAAAAABgk2z1tk/98ywfAgAAAAAAAAAA8Kj+dvcfnwqwLuvm6mNrrAEAAAAAAAAAANgQ93RZt+z+8f8B1riqnUZ/v84mAAAAAAAAAACADTB627iqnd0/tz7ty6WbjnwQAAAAAAAAAADA5njzmX98eoA1+qsjnQIAAAAAAAAAALBJHvz0xmo88vvlWLdVX3ZUewAAAAAAAAAAADbErWO7rzzzg62zXPSmIxoDAAAAAAAAAACwSd7wyA8+M8Aa/cWRTAEAAAAAAAAAANgk43wCrLt7U3XPUewBAAAAAAAAAADYEHe19NZHfvgZAda4sVPVnx/JJAAAAAAAAAAAgE0w+tOx3QOP/PgzT8CqWvrjQx8EAAAAAAAAAACwOc7aVJ09wBq9pbr7MNcAAAAAAAAAAABsiDu6rL852xdnDbAePirrhkOdBAAAAAAAAAAAsBn+cFzVg2f74uwnYFXttH1ocwAAAAAAAAAAADbF0u8+2lePGmCNk727+sdDGQQAAAAAAAAAALAZ3j5O9J5H+/LRT8CqWjpx4HMAAAAAAAAAAAA2xTkaqscOsC7phupjB7kHAAAAAAAAAABgQ9zT/3bjY13wmAHWuKZPVNsHOgkAAAAAAAAAAGAz/M54bZ98rAse+wSs01e8pjp1UIsAAAAAAAAAAAA2wP3Vb53ronMGWOPaPlj9yUEsAgAAAAAAAAAA2AhLfzC2+/C5Ljv3CVinH/aqatnvJgAAAAAAAAAAgA2wVK8+nwvPK8AaJ/rX6vX7WQQAAAAAAAAAALAhXjdO9J7zufD8TsA67Reqnbk9AAAAAAAAAAAAG2Gn+pXzvfi8A6yx3c0t/enUJAAAAAAAAAAAgE0wumFsd/P5Xr6XE7Bqq1/MKVgAAAAAAAAAAMDF6aGWfnUvN+wpwBrHe291/V7uAQAAAAAAAAAA2AhLJ8Z2t+zllr2dgHX6jp+tPrbn+wAAAAAAAAAAAC5c9zZ6xV5v2nOANa7tjkav3Ot9AAAAAAAAAAAAF7BfGtvdudeb9n4CVtXdvbp6/9S9AAAAAAAAAAAAF5Zbqt+euXEqwBo3dqr6qZl7AQAAAAAAAAAALiBLo5eO7R6YuXnuBKxqbPeG6o9m7wcAAAAAAAAAALgA/P443k2zN08HWA97SfXRfT4DAAAAAAAAAABgDXf2QC/bzwP2FWCN7e6s/Q0AAAAAAAAAAABYxeil47r9HUA19rthqdGxXl99236fBQAAAAAAAAAAcET+bGz3Xft9yH5/grBRSw/0guq/9/ssAAAAAAAAAACAI/CRdvrRg3jQvgOsqnFdH230gmo5iOcBAAAAAAAAAAAckqXRC8fJPnIQDzuQAKtqHO+N1TUH9TwAAAAAAAAAAIBD8JvjeH95UA87sACrqs/pZdU7D/SZAAAAAAAAAAAAB+MdXdrPH+QDx0E+rGo51tOrf66eetDPBgAAAAAAAAAAmHRHOz1rnOy/DvKhB3sCVjW2+0Cj760eOuhnAwAAAAAAAAAATHio0Q8cdHxVhxBgVY3jvbWlVxzGswEAAAAAAAAAAPZk6eXjeDcdxqMP/CcIdy01+pGub/RDh/UOAAAAAAAAAACAc/i9sd2LDuvhh3ICVtWopdGV1VsP6x0AAAAAAAAAAACPaumvu6cfO8xXHNoJWLuWl/Sk7u9vq2cc9rsAAAAAAAAAAAAe9t5O9exxffce5ksO7QSsXePqPt5O31l96LDfBQAAAAAAAAAAUN3eE3vuYcdXdQQBVtU42a0tPaf6yFG8DwAAAAAAAAAAeNz6aDtdMa7p9qN42ZEEWFXjRP/eTpdXdx/VOwEAAAAAAAAAgMeVe9vqinGy9x3VC48swKoaJ3t3o2+vPnGU7wUAAAAAAAAAAC5697XVFePa/uUoX3qkAVbVON7fNXpOdddRvxsAAAAAAAAAALgo3dvoinFt/3DULx5H/cJdy4/0NY3eXH3BWhsAAAAAAAAAAICNd0ejy8fx3rXGy1cLsKqWY31VdVP1tDV3AAAAAAAAAAAAG+nDLX3rONF71hpw5D9BeKax3S3t9M3V+9bcAQAAAAAAAAAAbJx/q75+zfiqVg6wqsbJbu0JPbulv157CwAAAAAAAAAAsBHe2qm+aWz3gbWHrB5gVY3f6Z7u7YrqtWtvAQAAAAAAAAAALmCj66vnjeu7d+0pVWPtAWdaanSsn6t+uQskDgMAAAAAAAAAAC4ID1U/N7b7tbWHnOmCCrB2Lcd6TvVH1ReuvQUAAAAAAAAAAFjdXY2+bxzvprWHPNIFGWBVLT/el/ZAr2v0dWtvAQAAAAAAAAAAVvPOtvrucW23rT3kbC7Yn/kb13R7n9u3NLqmWtbeAwAAAAAAAAAAHKml0Wu6tG+4UOOruoBPwDrTcqzLq+ury1aeAgAAAAAAAAAAHL47qheO7d6w9pBz2YgAq2q5si9qq+uq5629BQAAAAAAAAAAODSv74FeNK7ro2sPOR8bE2DtWo71/Oqa6qlrbwEAAAAAAAAAAA7MPY1e3vFOjFrWHnO+Ni7Aqv8/DevXqx9cewsAAAAAAAAAALBvN/ZAP7Epp16daSMDrF3Li/uOll5TfcXaWwAAAAAAAAAAgD17f6OXjuO9ce0hszY6wKpant9n9eR+rNEvV09aew8AAAAAAAAAAHBOn6x+o0t75bi6+9cesx8bH2DtWo51WfXKTv8s4dbKcwAAAAAAAAAAgM+009J1Lf38ONlH1h5zEC6aAGvX8uK+uqWrqu/pIvz/AQAAAAAAAADABloavaH6hXG8d6095iBdtIHScqxnVK9IiAUAAAAAAAAAAGt6S/UzY7t3rj3kMFz0YdJyZc9qq5/udIj1xLX3AAAAAAAAAADA48AD1R+39Kpxon9de8xhuugDrF3LsS6rXlz9ZPXklecAAAAAAAAAAMDF6L7quupVY7sPrD3mKDxuAqxdy7E+v6Xvb3Rl9bVr7wEAAAAAAAAAgIvAP1Unu7QbxtV9fO0xR+lxF2CdabmyZzW6stH35lQsAAAAAAAAAADYi7urG1o6ebH/zOBjeVwHWLuWl3Rpp7q8pedX31k9ae1NAAAAAAAAAABwAfpY9eeNbuzu3jRu7NTag9YmwHqE5Yf77C7pedW3NXpu9SVrbwIAAAAAAAAAgBV9oHpjo7/os3rzuLr71x50IRFgncNyZc9sq+dWl1dfX33OypMAAAAAAAAAAOAwfaJ6e/Xmlt44TvSetQddyARYe7Bc1RP7YF9bfUP1jY2+rnr6yrMAAAAAAAAAAGA/bqve0ehtLb2te3rXuLGH1h61KQRY+7T8cE/uiT2j0TMaPbP6quorOv3ThU9Ydx0AAAAAAAAAAFT1YPVf1a3VLY3e3ejmLunmcXUfX3nbRhNgHZLlWJdUT2/05e30xY2eUj21pac0+oLq809f2JPa6gktXVJ97oqTAQAAAAAAAADYHPc1erClB6v7Hv7snurOlu6q7myru1r6YDvd1tO6fVzVg+vNBQAAAAAAAAAAAAAAAAAAAAAAAA7G/wETRiJuWn6zQAAAAABJRU5ErkJggg==;" vertex="1" parent="S314ZZc2xVepcIE-NDJ0-17">
          <mxGeometry x="66.88000000000001" y="238" width="49.13" height="52" as="geometry" />
        </mxCell>
        <mxCell id="h9y931ZIdj-U9sBVEpIx-8" value="&lt;div&gt;Sends email&lt;/div&gt;" style="edgeStyle=orthogonalEdgeStyle;rounded=0;orthogonalLoop=1;jettySize=auto;html=1;" edge="1" parent="S314ZZc2xVepcIE-NDJ0-17" source="h9y931ZIdj-U9sBVEpIx-3" target="h9y931ZIdj-U9sBVEpIx-6">
          <mxGeometry relative="1" as="geometry" />
        </mxCell>
        <mxCell id="h9y931ZIdj-U9sBVEpIx-3" value="Serverless app" style="shape=image;verticalLabelPosition=bottom;labelBackgroundColor=default;verticalAlign=top;aspect=fixed;imageAspect=0;image=data:image/webp,UklGRlIaAABXRUJQVlA4TEUaAAAvj8FjEOZg3LaRo3H/dW+SNtz9IoKB20aKtJtlOBh6Q52c8tfSvNgsyJlIyWjCr6iLol8c64+3qsJI3XkC00oAjB5HM0Qsoq0D4aVG0IIRpgAF0TT+WO4BDU/EP6FgkqqFqyPUtufdz1cbA0ZTgs8HkOPaGwVtsSP/nypJztXHXOzKVwMNi12vqGuWu73dFR2Amanf/wnP0BE11VMvf/nPf2qt+YuZmclvS+QxevJ1BDoHMzPjBWSNK3NCpmQxuMw6wvjSBZjJVcjbGwitBU94BWapLVky8QSYjlgH4LbETIsZIU8hybbdRJJiA0UZX8HNzFgwbCyu0Ff2yXmPeh29cX3Jjm3bbRsVwaB3L+TUgvsfN+BfZQH74YFR2dmKWwIkSaZthY3zbNv8tm3btm37P9u2bdu2rm3fM5LYRnIkSSGh9rx307N9+7Zj7f8qecrWZw1k3v9r1VW3qu4td5fW0jYcluJ09/ndz+/X34r4LALPpnPcyTWaBbAIJyWuQ0w6OyD0DbiH7g6xbQBCdyL2AOGQQzqQOyxFN0DGDpiUQ+puGadSIrecIyAo/o8mOY4kOZIsq+VlVZU0IrJmsUe0E48Ctm3H2+xYbbtDbdu2bdt2Z9u27cyrfxVDsg51Gwzpf7Sx872PJDeSHEmihyFXPmBmVtx1L8fW+c86/1lsXJepXNNyPbLCwHctn75H3vRlZUQKR/bJI4t3ZAH8jix0ZD2Z+9ARlBt5JI6s9//SYkcW4boeWTk5sMoPLdBkh1almBx6ZA6tJV0cWHfE5NCpOrRBl91RTO+hvaiLQxsdMS8pOXBqD2zQZQf2ISl1Qz9yBzZZFwfO6CVSsm836NKBvXJN20hM775N2bdBj+3b6NBOoJQc2M1v0sS+tZNievfsn5rYt4faHikx2bfaNGnf/nMtYSCm5lpxz6bu2aDF9mxs3wqnmOxZHY/Rw569kQvGu2f3+R5JOZk73XMbtNjcJk98aMupQ6k0t5e1MLdFM8ePcvLeuQNabMZaBdUWU5k7K1qYO7gbedYIytzeMnNAh80d4rZPTUE1clRnzqoOZg5/YrlRUGZsmxbv1KmRVFNbbebQdDBz7lFSps7OqQMabMpm3iop3506DA3MHN7MdhbVO3V26/DO7GJR9d2xw5w4gL+Jc4uiMnX2adDYmXycqIx8ak0cFr4vjLm1rN6JfVCDd2Lny6odqTd2OGMH4DdxTlNWxuzImAH8xgy/4coL6x0zDrwxo+1aJsJ6R+zYiAH6RgyNeYqwGgn9EePCG7FDFJZd5yR8IzZ66JERlh22bsT56EZsZWobSevd5Wd2GYBvl6FdkSCtRs76Xc5Ht+vspLSM2Hn0dvnQubRM7A07TLDDAHs77M9EGIjr3WaXwNth2C4LF1ebthH6u8M3Ulx22BXwdljfSlw2pNk2E20zgN42I098aMvr3XauY/fZLcdPXm1J820u2uYAvR3RSnnZ5Le2OEBvk+OW8rItLLa4GNomJ35XYO+WuAvdNudvCzeBtcVstjgGbYvXUGC2xP1NDsjbFPck1g6z3eQYsk0+81aJ2eSPkNvkvA3pLLE2HPsNjm1wAN4GK6HEbPCnyG3wWyJrU7hscARsg0+OSEFkNjgOuA3O2uTWIqsvXIccDTngbsjzKTJD9hK4IT8tswbCbSjQUADshgL/HpkZ8je4DQWtr01k1pB5DwTAbiDQgKdQZgbiPa6+OCS0esoXt74Yu0Ro+mKgLwB1fbHSBiOhNZB+sPUFGogECk1fDMLq851Sq8tDYOuLofOz28gyqYw33xXc0hPDPQGg6wnqQBhQmWWNsisNo+VoJsuab/IhYYvpXM9g+G1QFw2AaEB/Ztxb1hwruqPDwlHrCezpVKV2CGKM7wbgYzSAZkBoDdU4GNRQfQzAxoEZo6U+XOo7oy9GUHXlRqqSWW9vUCfjwAwgjLTD0kBQt+ptADXOmwGjBziiL6NQ64m+lbIMwMR5M4BZ37A8GLm2J0ZB9QS5B9rqizEDDNOyLAQZgxKja7sypisAc10haks/lQXFmuE1pBgNGHNhV4yB6opWKrIleod+wwxAzu2IeNA6ArdU1TtjHK74VXARzLIrxjF1BbHhU1NhFbyN8Lm3p5K6EiDXlcKO8lZYNUXPvcuO/NyRALmurKUaBoNjv6BY7wbPfgxsqVTMOvKewoLiLwwqOVosA+M4lx2Jh9SRM2+NuhgNoJu2XyJ0HOzIdMg6kteVzuqyU+Q4eJFHoiMJbQmIa8kSRRmAi9HWwBTjFc4BoS2yIOuoW1RieYvTT6L1Xv5YUTHd4AEoxsf3GuUA+B7JtvyOqC0n86SgxEo7Vt8QI8CDJM0AUoQsazkHoC1yEWtLVpdbU4ms5XmE7MXPF5ORvncHFQ0oBZxt+QNRR+VTDQO6I8qwFGtgzp6WKmhJAFxLnCYIA1gxJF75BhHFBvuzJacAtSThPaq8OKJ2vxH0fgKSHV25GUCMMIyRbU1TFgPWkrSmMqUqNaM84sww+gakaDDstT6bcgZPS6KWSqEyxoYjEbeb/UI4RjajK7IayJtrlLGlLUsB35Y6RHVuY0A+0o/L1k8iDoOhaVOcaaglI490U843JcCtqcZ8jwwV7n8ZaIi4PerangJ7cAOHaWmuby411ZaWqMCrKVcV/4nt8WmjakAN1BBkjBb73tOSC3CaErV0Iqn4DKiFGsDYVNV4b1PupPJt3u/UsIavBzfFEpymHDrnWXu3eSer2JR1DQloa0hqTRiQ6Cd5BnStOhi11Z62H7mGJKNpSKyhwslorgbqkB4qDF9mFhuyAe6ty40k/r390JD1vYaiNBSAran6VtTjZO6vkFjXzXUFYKspcgm0yQjPgHqoIjeyP+ko5Kyrn2DqSlSXfuTZei9lF+uqDe19FyPey43RivRbMmQAhl1VrVhXVDB1iVtSq5M1A3pAsSY7waorYsNoknpdgPpyTVFrCqBWU8KG8ibCNjnqtQxoi7j95FvBiVXZ/WcsNVlLanf1zegSmtpSqaaWsdT0PfJMvRG7skNmQO+KvZWuoqjqjVjV1EyJqfBMvdqAlWmZ5dg+NbUCpaZ4delMAl0G2uVzxeFgyTJW1ZbqBVCryhJS2wtHdUe1eq9CqVa3SH2v1lbnUMRatQ2q6vX19tT4DMBfTbJqoA9Z21arXjQk1YtVAhvirXYIIpivM2AG2UcVSKXcWbkAaRWVTyKeAR1QQ9DXKxcDSaU6Tep+972MR2RHvQXXWK73IFW5CL4rTxOc+OVJq3IxgVQuWkmZkkY4eTKgHxur1X6gKheqqFQqYw1qJ9J612xl72Xli1W+AGfl6hAphAYsbPQhA6YjDgNGzqFYStVBoMrXmO+fDA1ygleUeuWbU74BZuV7tQxGpElOjh6BjpX6CE7lG1V0IvG3/sZSuOXmypxzFaEP9JbqXeSZeR8xYIpxLNXHSzfArHQPndM4V+tHGxE6QOFn6ebCKN3Uz5DGOQPm9xc4FqtTMJVurKjCqc3ek7UMQPU9A8YcVKV1pZsPo6Q2kYY6aWMpnIGpdPf5Hkma6pb31Zod9c2lGXh5Wl+8BcUbQFa8yJ8kzXXc2oAdC/V5lIq3qCz9SJOdty2qA4q4AeYtqDbSbCdnLNSXUCreuCV1PGN1MOL2WT6uNIzeGHFkYNxNny/cwsINGCvcxMBoUstt3l8ZQN1byFioroL0yrzyJg14MpaVZoVbBKIIteTZeKYbDPnHfLgOUqG+R2p8Bgz55BcNGI44DJhwVV6ag7wzWk5+kYY80zK7t0eNtJOpOiJf38rfALFpLfm71tybNOdJV1FY5G8xhplaXlSa8zb8VraYr+9i9DVlM19+iET7tuXANn9jEKa1HLqYBtEv+vFrP389gCh/szNgQ56F9xhoP1d3Z25guQEIy2H+Tf55DAOfWH9VyY1HEOXDadLEtyjUv60y2h7izQ3C5TTynW1RpscecvMpQrnBzJIlaZJ7I1SJypNLbiAAd8phKs2yc2AV6JG57MBlBwAsVx8mTX4se5+6JETX7EAAcmPsoTT5XWFRmktt2fEKoOxYDcGIXObvNXVZLkVntOdlxl12sLNjIou5Ov6Zk/eMjxPRn2cGZMabzAATLxN3wd3oOBIPEKSM8nmhkWUGFihHdk+SGx0b+QBG7a+Oycz3ZvbCTNjG70mko2MjHWDX2DgRPSogvxcaWhi2Kj9XjY10gE3jYyP49MzkcPSbWpZ81SfXj88N51MBBJq6TLxAZelKw6hyXr2qUXYMGVrmflvyVxb07xSODiPhHM7b6L5Ah4QDzLxw9K35kVP8d24du35inrB+vWZkMIbNLBz/+lKJ1OdqhyAT87ToV4EKN3Ph+FTwrU5Cn9cxHCNGFgzCN0noGx0a9qOuui+LAowycuGY9qVeVP/IjBvXj08N49utcsIxamLhmM0KA0a093024jY6Nswz5vGgrZdpzLdbSaUh1sSFg3RzX1CA/+bYNI3Ne0PJtru/yvLuzl7hGDOwcPy5NR1u/w9F3LaeV6kDrJzxygzw7d6QGR0fDDDvgrH8fV3+kUtjwOhUvdewzb1VX4RhACaz3p5Hy2CMm1dw09Lkwoi3/9NxP7Lb3Js6+pypbqC+3Tk1pCTzFgxGCB4a/SPJmVW0dgiiuvWyvh1RGIDdEr0Dk5bB/dm4gsH5FQG28b4RtW0fTJdVG4+2Bb7dmz7EVOMWDEEI0bzp9Plm89E2Q3Xy0abTs5bBxJtWMITv1ez/BGk8XLeoTj5cj2AYnxoc9cf/3Ln/ynIhhAzTFgxxWmcSZkf89ufT+TDkjzYDqs3Hm3oIY2ODY58/A1Eo3dS5b8rz4CKPRDC+GFYwsBDzcCJ6nyh63MtnwNh+sqtU7TzZJkBePs75M6SUKIyf2ynHglBnG7ZgoDRWIpXScS+eAeLU812kauvJdgPm5f54vOh7JNPje3qAWZeGVqBSSiB3ebtf2X+bOsamJrBmbGowWEolTWNggLmGLaW7cCL3QRrccS6e4ZvWbLVMXO1v9YtdjPXLxzp/hpTYuErPH+kJRl06bcWJwoepP9CLu729CVtDvblUmpgb3/pD17aCprs2gAKzlo5HwL4NenGbeyv+Yb8pr2s28+H24IquorYv83EVzCmjSqWTOJX0UUowV/QjHPbTj+M6uF3f3vzMDLB6ediIJj/FJQEVG7UgXX0ajNJ9nIbtquerzvKuwu4f73/q/O329ta/bkDljvX7CVJ/bF68skc6PedNKj0frHh9CtCLS4c9eYxSXauwUiKa4c40lZm09HxyjvSzMJcOd/wzUte+6be3/ys5Ojbox8krUnMhNcGcS823n0MK5tLhjn8Eq1r772OeP0FKrExjhUFLrv7LkX4HzKXDHv8IUq0grJQozHxc2M70+PcOSFX3fEM7zPGPIK2ymXc3/34/PF6moNqcpeZnz7c6UlYCUp15d/P398Oyc+6fCvgHlFNzyZhSg+C7GjCV4ZOULB1WZdceM32wMWap+SPQOkjBXDrc1x8BqhbO61jnT5DsRzQLbahMTSm15nzXkHMV/kEKSHX63c2fAVcOIxzj1xOkxM/UxJtRahLTuAGmgj5NCebS4Y5/+KvamXUVBmOoDx6pyTah1PqVcs2RwvjNGFd0FfpZ2w81otlgP5Gcj5KTlpxguiXn8ieQgglIdfr93e9j/H6SpITU7+1QZRs3kovuoytRFO6zhNuxzp/QI5z9+KuIle5houKEG7lFx7tSyW96ilZmJCfbJz8NI4qW4S1VjERFQtqrw13MSk5OEoI0LSiuVmnnxWoVYRKiiaKg75GV7k3FjeghEfUpAavkEqYo3tN4SrTYV5f+HIeSnOIkZWlaWPQxGarkRD6VEkXhfuCbKoUHkRIt8dKlP/H+BKD5EyWwSsdKekM1MCYh/bFIEtBmxlTLrbuICpCe6K/K3vE0fxCQJLGbKIh+BBca/4aUn7bpGIXXVUPjyp/fgfjxqElTLd2dSMkt9csE5gHVyxK1REH0E7jguPLnFI7VGXGP1i+i0pKeVw2PCSjEqaeSdXkFQe5nZGV4Tl2vpDskcuXPaRg9lbzxOlDwM58kWuaLCSpJTEDZlErFgp9xkFy+NF4Rn/MoplQaG7VUUyZQ+CXhICrp55tEy73QxwqUphStu9ZMw8NK96xyGYXboZ5sp4oHZ2IugJhS6f2EnwVJH6pBSqwv3yQIol/BBcmSv7KJScIQnzNpoa9hRM+ohsk41WOUmMSHGD+S3G1IiVawdiExKRASk+xrY4Ig9xu4QNmtcj8+AWGJSY2jtYYRPa3qtxTWn/xcNb5nV4dYBPH5f1zbEUQZfvc9VaJbJXCqDh9xKL7o6+hGDHONMkT/gxPAU+5U58n3uyoEBsQnex399YyvRHm+26l4xqD45K5DEErk+iOj8JRqsPz+V90Tn4IExJwxqRbhFqREGxjaqfLSffElXKcEDSP3pGq4vHhXQeoqwPXiSxynLJRKGgAuYHYr3jovvlCcys6kVGl1LVGOr/bqi1ZHQesowPHWF4qbag0r6AlVaSTayMpOxvtPuiZO7SiVNBCcLxJlIz3VqgYftqtPSFdBd8099SxoxuLOqOtk+eRhRXhcfRq5azzUMprrixGxToY/lwo3KOG4I7kHVKWS3CYmxtKeiOtkRN/cy8JmjLRiixmtdpb4ZXUgy6SCBoMLnLG0P9q6yqzL+xfR/erjKFztlT5oxxYrtiDKdRR54/VVwcukk2izc714ONLaiooF7yIq7OerRFne6Es9b3Gi1FE0fZ9JREPAiehprtR0SivD32UdRes2NdPwryLcpxo88/po3FbwHBJb+PuENdVi6yqkJW1xaDsj2GGxNRVTukwiNxRc+OxUmLcVAnfE1sxT9atY3asaQNtZwtzlLaKHG7RMVol2neRGbSf0KizaCqEzYoviaROQKAyTNtXCXcndVkZkSwGu5i3quwlh7r+yROPASSFRJms7dWjVUghd4S3aOjnrV+HuURXZk+3UgdPKiHWVt+gv0jKZJdqNNq/OrqUQO+KvDvoTwlPETnU2XMHXVmaCo7zF9UwwSBTGgwujnmvu6PzTuonVr5OHu1WeEfUlSuOpm267yVtiz6RrF1FBP9kl2oPTBRtvYW6KUTZIRBPAhVI33YskbyEXy/Wr3LpLNQDOhroYYmD7o0iKUY2WySVRKje952Ekr0sdIBFNTDgeeUWVbLTVBynRXoSuax/J65mN+lW4m1W2lXQpUTqrh2y89TSKWln+gFS6qeDC4d1vY4tDLp+KwLMUw7kTDqLcWbpJ5Vu5dQnS0j1si7dwEdTOiGby9Eda9SOKYguKRPMs8dA1gvcGXO7CSG5oYFItVr33gUF0yhJ3vXYXKF9TmX15ZQLRNmhSSpSCguiEHTHjrb5D+Pzvww+FVa5u0AqT/h+kRHPtaCkq4Ljr/Z0Ig2gKsOBI9JAVecVKeO76x5dKxPECDEQ5JV2vsu6P+zj/jFqKajTuGv0LgdymoNWogiPRthNRRG2IkR86d+EvJdToTj2ig4DKcJ3Ku1nq9Te3F1+cZwiMu6beQLCVO/WJDiA+hcQSJbvMNaGKc9fsupcBCXcvCVCqs6HnTRxemnTXsFruIn6IgDt5aPAS24LjV2zzMFJt7qK8jdTrvtNPcF1dlnTXf0rlCtLdVLlq8wWJrps8N0ZpTQX94apspXCoesLr5KK9O8dUchejWYdLVDkboFRPtupxEwcXJGMUrzJ3cTwMUOVtgFKl0JlcPLyl+4wr5C7uD8h8p1g1/FmVf34GQfTleheTFeYugWNiSfYSHR5eIMS2fKk67hI7JoPU4QKUKv3R6W3QJ7O4Jk1d7sJcyiH1uu/cSMOx0nUhOj0I0VrE0yGf5iyCMu5CHlZQk5101eSyg7zt5O4yDcl+W9I3P3vZI29Y0EuQNzfIoyx1uVRDbXaGdxAdT4kojui/82qY9zT3mVTGo05qtTOsudthoPEwV1mO2UQhb+WuH6o48TClzDEFqnLTcTG3erwiXrq8FDOXShTlNjeeJuZ+6DzzzgIlc9bjc4rZf9TkrjdX8leWcn6dtaCEs/ruRDlzTLWSnPWPL5UEne+fjLOWVHDWp/9T0ByqU9HfLpV0d3IWWQFnTa1JPUqag40KctbsupeBqFvIFRh77EVaAyOKWrPykX3O+uOQpaz7/h+tuekff5S1RsVT65xFe7Sw+36uJOZKsJzzZbhe7hS2vPKlbc7D8bwCpN3FcyXJEucROG4Upe0jljmP0DVx4q5XX7QaSqodziN2KZPilmf33i7nwRw3V979P1fSrHAe5JhKylsz85Pd+WGBd8GvW+G6XRS4RsY3qxzaIvHenytZNtjNEUpcnt1Pm5zuCYr8zZVsC9zmytNELs/801BC9TnPg5XIW/Oj11Byq2N/n5xT5Ox0rHrO9+3dZN5T7YdbGfvpv5wyZ3dPnjr7+fcOQu8atM5++KdlP5883+oUOqc5e9rsh3ArqdeosGgohRWxn+nfUeomMyIrZj9z3xB7rSqWFU/7IdnamGI3mRlTLfv5s0ZWci+vzq6hFFfCfpYv+Lal3DUyEyplP/QL6Cr4WtXZVzrtL8NyPSh4jYzkKr3WdgMlnws29oOdwnMsN5qSZzX3TpH9CG2KF32/O8VrP2KLMil69vPw5J5guXmyz/ayO/ltKFHLVFL2fnrym1c8Fn6PvtOJGpUvVPjsB3dik9m9P22/h534vpPS5zyvTsrunlxK35qXu/Ug64HjZzVXnyb+98Lz7oSs58G5+Lv/CV34Prmy/9IUP+vpP96kuvK7yT+b/I5vUtn4fcqf/Qwea1LZcvG9ANkm5NisNXFlv1W5APj0cezny60WgVymYj3cY1jPzJofPS4CbJN/TNYzZ7mGXAhYzfVbZD3k+3ExYD2Lt/jxzsULQg+1Huzm/M9yO5/GBcGaH7kf34z14O7HxWGvuuzH1vPqggnlIrGF+1/MhWO39N86/1m4EQA=;" vertex="1" parent="S314ZZc2xVepcIE-NDJ0-17">
          <mxGeometry x="56.44" y="380" width="70" height="70" as="geometry" />
        </mxCell>
        <mxCell id="h9y931ZIdj-U9sBVEpIx-6" value="&lt;div&gt;Azure Communication&lt;/div&gt;&lt;div&gt;Service&lt;/div&gt;" style="image;aspect=fixed;html=1;points=[];align=center;fontSize=12;image=img/lib/azure2/other/Azure_Communication_Services.svg;" vertex="1" parent="S314ZZc2xVepcIE-NDJ0-17">
          <mxGeometry x="220" y="390" width="68" height="50" as="geometry" />
        </mxCell>
        <mxCell id="h9y931ZIdj-U9sBVEpIx-12" value="&lt;div&gt;Hosts&lt;/div&gt;" style="edgeStyle=orthogonalEdgeStyle;rounded=0;orthogonalLoop=1;jettySize=auto;html=1;" edge="1" parent="S314ZZc2xVepcIE-NDJ0-17" source="h9y931ZIdj-U9sBVEpIx-10" target="S314ZZc2xVepcIE-NDJ0-6">
          <mxGeometry relative="1" as="geometry" />
        </mxCell>
        <mxCell id="h9y931ZIdj-U9sBVEpIx-19" value="&lt;div&gt;Calls&lt;/div&gt;" style="edgeStyle=orthogonalEdgeStyle;rounded=0;orthogonalLoop=1;jettySize=auto;html=1;" edge="1" parent="S314ZZc2xVepcIE-NDJ0-17" source="h9y931ZIdj-U9sBVEpIx-10" target="S314ZZc2xVepcIE-NDJ0-18">
          <mxGeometry relative="1" as="geometry">
            <Array as="points">
              <mxPoint x="470" y="266" />
              <mxPoint x="470" y="151" />
            </Array>
          </mxGeometry>
        </mxCell>
        <mxCell id="h9y931ZIdj-U9sBVEpIx-10" value="&lt;div&gt;Static App Host&lt;/div&gt;" style="image;aspect=fixed;html=1;points=[];align=center;fontSize=12;image=img/lib/azure2/preview/Static_Apps.svg;" vertex="1" parent="S314ZZc2xVepcIE-NDJ0-17">
          <mxGeometry x="544" y="238" width="70" height="56" as="geometry" />
        </mxCell>
        <mxCell id="S314ZZc2xVepcIE-NDJ0-6" value="inventory management&#xa;frontend artifact" style="shape=image;verticalLabelPosition=bottom;labelBackgroundColor=default;verticalAlign=top;aspect=fixed;imageAspect=0;image=https://testrigor.com/wp-content/uploads/2023/04/nextjs-logo.png;" parent="S314ZZc2xVepcIE-NDJ0-17" vertex="1">
          <mxGeometry x="530" y="376" width="98" height="27.65" as="geometry" />
        </mxCell>
        <mxCell id="S314ZZc2xVepcIE-NDJ0-12" value="User management&#xa;frontend artifact" style="shape=image;verticalLabelPosition=bottom;labelBackgroundColor=default;verticalAlign=top;aspect=fixed;imageAspect=0;image=https://testrigor.com/wp-content/uploads/2023/04/nextjs-logo.png;" parent="S314ZZc2xVepcIE-NDJ0-17" vertex="1">
          <mxGeometry x="25.560000000000002" y="114.17999999999995" width="98" height="27.65" as="geometry" />
        </mxCell>
        <mxCell id="S314ZZc2xVepcIE-NDJ0-47" style="edgeStyle=orthogonalEdgeStyle;rounded=0;orthogonalLoop=1;jettySize=auto;html=1;exitX=0.5;exitY=1;exitDx=0;exitDy=0;" parent="S314ZZc2xVepcIE-NDJ0-17" source="S314ZZc2xVepcIE-NDJ0-13" target="S314ZZc2xVepcIE-NDJ0-12" edge="1">
          <mxGeometry relative="1" as="geometry" />
        </mxCell>
        <mxCell id="h9y931ZIdj-U9sBVEpIx-23" value="&lt;div&gt;CNAME to&lt;/div&gt;&lt;div&gt;static app&lt;/div&gt;&lt;div&gt;route&lt;/div&gt;" style="edgeStyle=orthogonalEdgeStyle;rounded=0;orthogonalLoop=1;jettySize=auto;html=1;" edge="1" parent="1" source="S314ZZc2xVepcIE-NDJ0-50">
          <mxGeometry relative="1" as="geometry">
            <mxPoint x="650" y="110" as="targetPoint" />
            <Array as="points">
              <mxPoint x="763" y="110" />
            </Array>
          </mxGeometry>
        </mxCell>
        <mxCell id="S314ZZc2xVepcIE-NDJ0-50" value="&lt;div&gt;inventory-hub.space&lt;/div&gt;" style="image;aspect=fixed;html=1;points=[];align=center;fontSize=12;image=img/lib/azure2/networking/Public_IP_Addresses.svg;" parent="1" vertex="1">
          <mxGeometry x="737" y="20" width="52.5" height="42" as="geometry" />
        </mxCell>
        <mxCell id="h9y931ZIdj-U9sBVEpIx-20" value="&lt;div&gt;Hosts &amp;amp;&amp;nbsp;&lt;/div&gt;&lt;div&gt;caches&lt;/div&gt;&lt;div&gt;frontend&lt;/div&gt;" style="edgeStyle=orthogonalEdgeStyle;rounded=0;orthogonalLoop=1;jettySize=auto;html=1;" edge="1" parent="1" source="h9y931ZIdj-U9sBVEpIx-9" target="h9y931ZIdj-U9sBVEpIx-10">
          <mxGeometry relative="1" as="geometry" />
        </mxCell>
        <mxCell id="h9y931ZIdj-U9sBVEpIx-21" value="&lt;div&gt;Hosts &amp;amp; caches&lt;/div&gt;&lt;div&gt;&amp;nbsp;assets&lt;/div&gt;" style="edgeStyle=orthogonalEdgeStyle;rounded=0;orthogonalLoop=1;jettySize=auto;html=1;" edge="1" parent="1" source="h9y931ZIdj-U9sBVEpIx-9" target="S314ZZc2xVepcIE-NDJ0-19">
          <mxGeometry relative="1" as="geometry">
            <Array as="points">
              <mxPoint x="654" y="250" />
              <mxPoint x="541" y="250" />
            </Array>
          </mxGeometry>
        </mxCell>
        <mxCell id="h9y931ZIdj-U9sBVEpIx-9" value="CDN" style="image;aspect=fixed;html=1;points=[];align=center;fontSize=12;image=img/lib/azure2/app_services/CDN_Profiles.svg;" vertex="1" parent="1">
          <mxGeometry x="620" y="82" width="68" height="40" as="geometry" />
        </mxCell>
        <mxCell id="h9y931ZIdj-U9sBVEpIx-24" value="CNAME to&lt;br&gt;assets route" style="edgeStyle=orthogonalEdgeStyle;rounded=0;orthogonalLoop=1;jettySize=auto;html=1;" edge="1" parent="1" source="h9y931ZIdj-U9sBVEpIx-17" target="h9y931ZIdj-U9sBVEpIx-9">
          <mxGeometry relative="1" as="geometry">
            <Array as="points">
              <mxPoint x="506" y="110" />
            </Array>
          </mxGeometry>
        </mxCell>
        <mxCell id="h9y931ZIdj-U9sBVEpIx-17" value="&lt;div&gt;cdn.inventory-hub.space&lt;/div&gt;" style="image;aspect=fixed;html=1;points=[];align=center;fontSize=12;image=img/lib/azure2/networking/Public_IP_Addresses.svg;" vertex="1" parent="1">
          <mxGeometry x="490" y="20" width="52.5" height="42" as="geometry" />
        </mxCell>
        <mxCell id="h9y931ZIdj-U9sBVEpIx-25" value="&lt;div&gt;CNAME to&lt;/div&gt;&lt;div&gt;web api public ip&lt;/div&gt;&lt;div&gt;&lt;br&gt;&lt;/div&gt;" style="edgeStyle=orthogonalEdgeStyle;rounded=0;orthogonalLoop=1;jettySize=auto;html=1;" edge="1" parent="1" source="h9y931ZIdj-U9sBVEpIx-18" target="S314ZZc2xVepcIE-NDJ0-18">
          <mxGeometry relative="1" as="geometry">
            <Array as="points">
              <mxPoint x="346" y="200" />
              <mxPoint x="472" y="200" />
            </Array>
          </mxGeometry>
        </mxCell>
        <mxCell id="h9y931ZIdj-U9sBVEpIx-18" value="&lt;div&gt;api.inventory-hub.space&lt;/div&gt;" style="image;aspect=fixed;html=1;points=[];align=center;fontSize=12;image=img/lib/azure2/networking/Public_IP_Addresses.svg;" vertex="1" parent="1">
          <mxGeometry x="320" y="72" width="52.5" height="42" as="geometry" />
        </mxCell>
      </root>
    </mxGraphModel>
  </diagram>
</mxfile>
